999
dxfrw 0.6.3
  0
SECTION
  2
HEADER
  9
$ACADVER
  1
AC1021
  9
$DWGCODEPAGE
  3
ANSI_1252
  9
$INSBASE
 10
0
 20
0
 30
0
  9
$EXTMIN
 10
-8.406608742461685e-013
 20
-8.37108160567368e-013
 30
0
  9
$EXTMAX
 10
88
 20
56.00000000000084
 30
0
  9
$LIMMIN
 10
-25
 20
-25
  9
$LIMMAX
 10
275
 20
275
  9
$ORTHOMODE
 70
    0
  9
$REGENMODE
 70
    1
  9
$FILLMODE
 70
    1
  9
$QTEXTMODE
 70
    0
  9
$MIRRTEXT
 70
    0
  9
$LTSCALE
 40
1
  9
$ATTMODE
 70
    0
  9
$TEXTSIZE
 40
2.5
  9
$TRACEWID
 40
15.68
  9
$TEXTSTYLE
  7
STANDARD
  9
$CLAYER
  8
0
  9
$CELTYPE
  6
BYLAYER
  9
$CECOLOR
 62
  256
  9
$CELTSCALE
 40
1
  9
$DISPSILH
 70
    0
  9
$DIMSCALE
 40
0.0393701
  9
$DIMASZ
 40
0.1
  9
$DIMEXO
 40
0.025
  9
$DIMDLI
 40
3.75
  9
$DIMRND
 40
0
  9
$DIMDLE
 40
0
  9
$DIMEXE
 40
0.05
  9
$DIMTP
 40
0
  9
$DIMTM
 40
0
  9
$DIMTXT
 40
0.1
  9
$DIMCEN
 40
2.5
  9
$DIMTSZ
 40
0
  9
$DIMTOL
 70
    0
  9
$DIMLIM
 70
    0
  9
$DIMTIH
 70
    0
  9
$DIMTOH
 70
    0
  9
$DIMSE1
 70
    0
  9
$DIMSE2
 70
    0
  9
$DIMTAD
 70
    1
  9
$DIMZIN
 70
    1
  9
$DIMBLK
  1

  9
$DIMASO
 70
    1
  9
$DIMSHO
 70
    1
  9
$DIMPOST
  1

  9
$DIMAPOST
  1

  9
$DIMALT
 70
    0
  9
$DIMALTD
 70
    3
  9
$DIMALTF
 40
0.03937
  9
$DIMLFAC
 40
0.0393701
  9
$DIMTOFL
 70
    1
  9
$DIMTVP
 40
0
  9
$DIMTIX
 70
    0
  9
$DIMSOXD
 70
    0
  9
$DIMSAH
 70
    0
  9
$DIMBLK1
  1

  9
$DIMBLK2
  1

  9
$DIMSTYLE
  2
Standard
  9
$DIMCLRD
 70
    0
  9
$DIMCLRE
 70
    0
  9
$DIMCLRT
 70
    0
  9
$DIMTFAC
 40
1
  9
$DIMGAP
 40
0.025
  9
$DIMJUST
 70
    0
  9
$DIMSD1
 70
    0
  9
$DIMSD2
 70
    0
  9
$DIMTOLJ
 70
    0
  9
$DIMTZIN
 70
    8
  9
$DIMALTZ
 70
    0
  9
$DIMALTTZ
 70
    0
  9
$DIMUPT
 70
    0
  9
$DIMDEC
 70
    4
  9
$DIMTDEC
 70
    2
  9
$DIMALTU
 70
    2
  9
$DIMALTTD
 70
    3
  9
$DIMTXSTY
  7
standard
  9
$DIMAUNIT
 70
    0
  9
$DIMADEC
 70
    2
  9
$DIMALTRND
 40
0
  9
$DIMAZIN
 70
    0
  9
$DIMDSEP
 70
    0
  9
$DIMATFIT
 70
    3
  9
$DIMFRAC
 70
    0
  9
$DIMLDRBLK
  1
STANDARD
  9
$DIMLUNIT
 70
    2
  9
$DIMLWD
 70
   -2
  9
$DIMLWE
 70
   -2
  9
$DIMTMOVE
 70
    0
  9
$DIMFXL
 40
0.04
  9
$DIMFXLON
 70
    0
  9
$DIMJOGANG
 40
0.7854
  9
$DIMTFILL
 70
    0
  9
$DIMTFILLCLR
 70
    0
  9
$DIMARCSYM
 70
    0
  9
$DIMLTYPE
  6

  9
$DIMLTEX1
  6

  9
$DIMLTEX2
  6

  9
$LUNITS
 70
    2
  9
$LUPREC
 70
    4
  9
$SKETCHINC
 40
1
  9
$FILLETRAD
 40
0
  9
$AUNITS
 70
    0
  9
$AUPREC
 70
    2
  9
$MENU
  1
.
  9
$ELEVATION
 40
0
  9
$PELEVATION
 40
0
  9
$THICKNESS
 40
1.326
  9
$LIMCHECK
 70
    0
  9
$CHAMFERA
 40
0
  9
$CHAMFERB
 40
0
  9
$CHAMFERC
 40
0
  9
$CHAMFERD
 40
0
  9
$SKPOLY
 70
    0
  9
$USRTIMER
 70
    1
  9
$ANGBASE
 50
0
  9
$ANGDIR
 70
    0
  9
$PDMODE
 70
   34
  9
$PDSIZE
 40
0
  9
$PLINEWID
 40
0
  9
$SPLFRAME
 70
    0
  9
$SPLINETYPE
 70
    2
  9
$SPLINESEGS
 70
    8
  9
$HANDSEED
  5
20000
  9
$SURFTAB1
 70
    6
  9
$SURFTAB2
 70
    6
  9
$SURFTYPE
 70
    6
  9
$SURFU
 70
    6
  9
$SURFV
 70
    6
  9
$UCSBASE
  2

  9
$UCSNAME
  2

  9
$UCSORG
 10
0
 20
0
 30
0
  9
$UCSXDIR
 10
1
 20
0
 30
0
  9
$UCSYDIR
 10
0
 20
1
 30
0
  9
$UCSORTHOREF
  2

  9
$UCSORTHOVIEW
 70
    0
  9
$UCSORGTOP
 10
0
 20
0
 30
0
  9
$UCSORGBOTTOM
 10
0
 20
0
 30
0
  9
$UCSORGLEFT
 10
0
 20
0
 30
0
  9
$UCSORGRIGHT
 10
0
 20
0
 30
0
  9
$UCSORGFRONT
 10
0
 20
0
 30
0
  9
$UCSORGBACK
 10
0
 20
0
 30
0
  9
$PUCSBASE
  2

  9
$PUCSNAME
  2

  9
$PUCSORG
 10
0
 20
0
 30
0
  9
$PUCSXDIR
 10
1
 20
0
 30
0
  9
$PUCSYDIR
 10
0
 20
1
 30
0
  9
$PUCSORTHOREF
  2

  9
$PUCSORTHOVIEW
 70
    0
  9
$PUCSORGTOP
 10
0
 20
0
 30
0
  9
$PUCSORGBOTTOM
 10
0
 20
0
 30
0
  9
$PUCSORGLEFT
 10
0
 20
0
 30
0
  9
$PUCSORGRIGHT
 10
0
 20
0
 30
0
  9
$PUCSORGFRONT
 10
0
 20
0
 30
0
  9
$PUCSORGBACK
 10
0
 20
0
 30
0
  9
$USERI1
 70
    0
  9
$USERI2
 70
    0
  9
$USERI3
 70
    0
  9
$USERI4
 70
    0
  9
$USERI5
 70
    0
  9
$USERR1
 40
0
  9
$USERR2
 40
0
  9
$USERR3
 40
0
  9
$USERR4
 40
0
  9
$USERR5
 40
0
  9
$WORLDVIEW
 70
    1
  9
$SHADEDGE
 70
    3
  9
$SHADEDIF
 70
   70
  9
$TILEMODE
 70
    1
  9
$MAXACTVP
 70
   64
  9
$PINSBASE
 10
0
 20
0
 30
0
  9
$PLIMCHECK
 70
    0
  9
$PEXTMIN
 10
0
 20
0
 30
0
  9
$PEXTMAX
 10
0
 20
0
 30
0
  9
$GRIDMODE
 70
    1
  9
$SNAPSTYLE
 70
    0
  9
$GRIDUNIT
 10
0
 20
0
  9
$PLIMMIN
 10
0
 20
0
  9
$PLIMMAX
 10
1.9863e-005
 20
2.8092e-005
  9
$UNITMODE
 70
    0
  9
$VISRETAIN
 70
    1
  9
$PLINEGEN
 70
    0
  9
$PSLTSCALE
 70
    1
  9
$TREEDEPTH
 70
 3020
  9
$CMLSTYLE
  2
Standard
  9
$CMLJUST
 70
    0
  9
$CMLSCALE
 40
20
  9
$PROXYGRAPHICS
 70
    1
  9
$MEASUREMENT
 70
    1
  9
$CELWEIGHT
370
   -1
  9
$ENDCAPS
280
    0
  9
$JOINSTYLE
280
    0
  9
$LWDISPLAY
290
    0
  9
$INSUNITS
 70
    4
  9
$HYPERLINKBASE
  1

  9
$STYLESHEET
  1

  9
$XEDIT
290
    1
  9
$CEPSNTYPE
380
    0
  9
$PSTYLEMODE
290
    1
  9
$EXTNAMES
290
    1
  9
$PSVPSCALE
 40
1
  9
$OLESTARTUP
290
    0
  9
$SORTENTS
280
  127
  9
$INDEXCTL
280
    0
  9
$HIDETEXT
280
    1
  9
$XCLIPFRAME
290
    0
  9
$HALOGAP
280
    0
  9
$OBSCOLOR
 70
  257
  9
$OBSLTYPE
280
    0
  9
$INTERSECTIONDISPLAY
280
    0
  9
$INTERSECTIONCOLOR
 70
  257
  9
$DIMASSOC
280
    1
  9
$PROJECTNAME
  1

  9
$CAMERADISPLAY
290
    0
  9
$LENSLENGTH
 40
50
  9
$CAMERAHEIGHT
 40
0
  9
$STEPSPERSEC
 40
2
  9
$STEPSIZE
 40
50
  9
$3DDWFPREC
 40
2
  9
$PSOLWIDTH
 40
5
  9
$PSOLHEIGHT
 40
80
  9
$LOFTANG1
 40
1.570796326794897
  9
$LOFTANG2
 40
1.570796326794897
  9
$LOFTMAG1
 40
0
  9
$LOFTMAG2
 40
0
  9
$LOFTPARAM
 70
    7
  9
$LOFTNORMALS
280
    1
  9
$LATITUDE
 40
1
  9
$LONGITUDE
 40
1
  9
$NORTHDIRECTION
 40
0
  9
$TIMEZONE
 70
-8000
  9
$LIGHTGLYPHDISPLAY
280
    1
  9
$TILEMODELIGHTSYNCH
280
    1
  9
$SOLIDHIST
280
    1
  9
$SHOWHIST
280
    1
  9
$DWFFRAME
280
    2
  9
$DGNFRAME
280
    0
  9
$REALWORLDSCALE
290
    1
  9
$INTERFERECOLOR
 62
    1
  9
$CSHADOW
280
    0
  9
$SHADOWPLANELOCATION
 40
0
  0
ENDSEC
  0
SECTION
  2
CLASSES
  0
ENDSEC
  0
SECTION
  2
TABLES
  0
TABLE
  2
VPORT
  5
8
330
0
100
AcDbSymbolTable
 70
    1
  0
VPORT
  5
31
330
2
100
AcDbSymbolTableRecord
100
AcDbViewportTableRecord
  2
*ACTIVE
 70
    0
 10
0
 20
0
 11
1
 21
1
 12
59.31711190792281
 22
32.42925776931929
 13
0
 23
0
 14
10
 24
10
 15
10
 25
10
 16
0
 26
0
 36
1
 17
0
 27
0
 37
0
 40
81.72365702342573
 41
1.889150943396226
 42
50
 43
0
 44
0
 50
0
 51
0
 71
    0
 72
  100
 73
    1
 74
    3
 75
    0
 76
    1
 77
    0
 78
    0
281
    0
 65
    1
110
0
120
0
130
0
111
1
121
0
131
0
112
0
122
1
132
0
 79
    0
146
0
348
10020
 60
    7
 61
    5
292
1
282
    1
141
0
142
0
 63
  250
421
3358443
  0
ENDTAB
  0
TABLE
  2
LTYPE
  5
5
330
0
100
AcDbSymbolTable
 70
    4
  0
LTYPE
  5
14
330
5
100
AcDbSymbolTableRecord
100
AcDbLinetypeTableRecord
  2
ByBlock
 70
    0
  3

 72
   65
 73
    0
 40
0
  0
LTYPE
  5
15
330
5
100
AcDbSymbolTableRecord
100
AcDbLinetypeTableRecord
  2
ByLayer
 70
    0
  3

 72
   65
 73
    0
 40
0
  0
LTYPE
  5
16
330
5
100
AcDbSymbolTableRecord
100
AcDbLinetypeTableRecord
  2
Continuous
 70
    0
  3
Solid line
 72
   65
 73
    0
 40
0
  0
LTYPE
  5
32
330
5
100
AcDbSymbolTableRecord
100
AcDbLinetypeTableRecord
  2
DOT
 70
    0
  3
Dot . . . . . . . . . . . . . . . . . . . . . .
 72
   65
 73
    2
 40
6.35
 49
0
 74
    0
 49
-6.35
 74
    0
  0
LTYPE
  5
33
330
5
100
AcDbSymbolTableRecord
100
AcDbLinetypeTableRecord
  2
DOTTINY
 70
    0
  3
Dot (.15x) .....................................
 72
   65
 73
    2
 40
0.9525
 49
0
 74
    0
 49
-0.9525
 74
    0
  0
LTYPE
  5
34
330
5
100
AcDbSymbolTableRecord
100
AcDbLinetypeTableRecord
  2
DOT2
 70
    0
  3
Dot (.5x) .....................................
 72
   65
 73
    2
 40
3.175
 49
0
 74
    0
 49
-3.175
 74
    0
  0
LTYPE
  5
35
330
5
100
AcDbSymbolTableRecord
100
AcDbLinetypeTableRecord
  2
DOTX2
 70
    0
  3
Dot (2x) .  .  .  .  .  .  .  .  .  .  .  .  .
 72
   65
 73
    2
 40
12.7
 49
0
 74
    0
 49
-12.7
 74
    0
  0
LTYPE
  5
36
330
5
100
AcDbSymbolTableRecord
100
AcDbLinetypeTableRecord
  2
DASHED
 70
    0
  3
Dashed _ _ _ _ _ _ _ _ _ _ _ _ _ _ _ _ _
 72
   65
 73
    2
 40
19.05
 49
12.7
 74
    0
 49
-6.35
 74
    0
  0
LTYPE
  5
37
330
5
100
AcDbSymbolTableRecord
100
AcDbLinetypeTableRecord
  2
DASHEDTINY
 70
    0
  3
Dashed (.15x) _ _ _ _ _ _ _ _ _ _ _ _ _ _ _ _ _
 72
   65
 73
    2
 40
2.8575
 49
1.905
 74
    0
 49
-0.9525
 74
    0
  0
LTYPE
  5
38
330
5
100
AcDbSymbolTableRecord
100
AcDbLinetypeTableRecord
  2
DASHED2
 70
    0
  3
Dashed (.5x) _ _ _ _ _ _ _ _ _ _ _ _ _ _ _ _ _
 72
   65
 73
    2
 40
9.524999999999999
 49
6.35
 74
    0
 49
-3.175
 74
    0
  0
LTYPE
  5
39
330
5
100
AcDbSymbolTableRecord
100
AcDbLinetypeTableRecord
  2
DASHEDX2
 70
    0
  3
Dashed (2x) ____  ____  ____  ____  ____  ___
 72
   65
 73
    2
 40
38.09999999999999
 49
25.4
 74
    0
 49
-12.7
 74
    0
  0
LTYPE
  5
3A
330
5
100
AcDbSymbolTableRecord
100
AcDbLinetypeTableRecord
  2
DASHDOT
 70
    0
  3
Dash dot __ . __ . __ . __ . __ . __ . __ . __
 72
   65
 73
    4
 40
25.4
 49
12.7
 74
    0
 49
-6.35
 74
    0
 49
0
 74
    0
 49
-6.35
 74
    0
  0
LTYPE
  5
3B
330
5
100
AcDbSymbolTableRecord
100
AcDbLinetypeTableRecord
  2
DASHDOTTINY
 70
    0
  3
Dash dot (.15x) _._._._._._._._._._._._._._._.
 72
   65
 73
    4
 40
3.81
 49
1.905
 74
    0
 49
-0.9525
 74
    0
 49
0
 74
    0
 49
-0.9525
 74
    0
  0
LTYPE
  5
3C
330
5
100
AcDbSymbolTableRecord
100
AcDbLinetypeTableRecord
  2
DASHDOT2
 70
    0
  3
Dash dot (.5x) _._._._._._._._._._._._._._._.
 72
   65
 73
    4
 40
12.7
 49
6.35
 74
    0
 49
-3.175
 74
    0
 49
0
 74
    0
 49
-3.175
 74
    0
  0
LTYPE
  5
3D
330
5
100
AcDbSymbolTableRecord
100
AcDbLinetypeTableRecord
  2
DASHDOTX2
 70
    0
  3
Dash dot (2x) ____  .  ____  .  ____  .  ___
 72
   65
 73
    4
 40
50.8
 49
25.4
 74
    0
 49
-12.7
 74
    0
 49
0
 74
    0
 49
-12.7
 74
    0
  0
LTYPE
  5
3E
330
5
100
AcDbSymbolTableRecord
100
AcDbLinetypeTableRecord
  2
DIVIDE
 70
    0
  3
Divide ____ . . ____ . . ____ . . ____ . . ____
 72
   65
 73
    6
 40
31.75
 49
12.7
 74
    0
 49
-6.35
 74
    0
 49
0
 74
    0
 49
-6.35
 74
    0
 49
0
 74
    0
 49
-6.35
 74
    0
  0
LTYPE
  5
3F
330
5
100
AcDbSymbolTableRecord
100
AcDbLinetypeTableRecord
  2
DIVIDETINY
 70
    0
  3
Divide (.15x) __..__..__..__..__..__..__..__.._
 72
   65
 73
    6
 40
4.7625
 49
1.905
 74
    0
 49
-0.9525
 74
    0
 49
0
 74
    0
 49
-0.9525
 74
    0
 49
0
 74
    0
 49
-0.9525
 74
    0
  0
LTYPE
  5
40
330
5
100
AcDbSymbolTableRecord
100
AcDbLinetypeTableRecord
  2
DIVIDE2
 70
    0
  3
Divide (.5x) __..__..__..__..__..__..__..__.._
 72
   65
 73
    6
 40
15.875
 49
6.35
 74
    0
 49
-3.175
 74
    0
 49
0
 74
    0
 49
-3.175
 74
    0
 49
0
 74
    0
 49
-3.175
 74
    0
  0
LTYPE
  5
41
330
5
100
AcDbSymbolTableRecord
100
AcDbLinetypeTableRecord
  2
DIVIDEX2
 70
    0
  3
Divide (2x) ________  .  .  ________  .  .  _
 72
   65
 73
    6
 40
63.5
 49
25.4
 74
    0
 49
-12.7
 74
    0
 49
0
 74
    0
 49
-12.7
 74
    0
 49
0
 74
    0
 49
-12.7
 74
    0
  0
LTYPE
  5
42
330
5
100
AcDbSymbolTableRecord
100
AcDbLinetypeTableRecord
  2
BORDER
 70
    0
  3
Border __ __ . __ __ . __ __ . __ __ . __ __ .
 72
   65
 73
    6
 40
44.45
 49
12.7
 74
    0
 49
-6.35
 74
    0
 49
12.7
 74
    0
 49
-6.35
 74
    0
 49
0
 74
    0
 49
-6.35
 74
    0
  0
LTYPE
  5
43
330
5
100
AcDbSymbolTableRecord
100
AcDbLinetypeTableRecord
  2
BORDERTINY
 70
    0
  3
Border (.15x) __.__.__.__.__.__.__.__.__.__.__.
 72
   65
 73
    6
 40
6.6675
 49
1.905
 74
    0
 49
-0.9525
 74
    0
 49
1.905
 74
    0
 49
-0.9525
 74
    0
 49
0
 74
    0
 49
-0.9525
 74
    0
  0
LTYPE
  5
44
330
5
100
AcDbSymbolTableRecord
100
AcDbLinetypeTableRecord
  2
BORDER2
 70
    0
  3
Border (.5x) __.__.__.__.__.__.__.__.__.__.__.
 72
   65
 73
    6
 40
22.225
 49
6.35
 74
    0
 49
-3.175
 74
    0
 49
6.35
 74
    0
 49
-3.175
 74
    0
 49
0
 74
    0
 49
-3.175
 74
    0
  0
LTYPE
  5
45
330
5
100
AcDbSymbolTableRecord
100
AcDbLinetypeTableRecord
  2
BORDERX2
 70
    0
  3
Border (2x) ____  ____  .  ____  ____  .  ___
 72
   65
 73
    6
 40
88.89999999999999
 49
25.4
 74
    0
 49
-12.7
 74
    0
 49
25.4
 74
    0
 49
-12.7
 74
    0
 49
0
 74
    0
 49
-12.7
 74
    0
  0
LTYPE
  5
46
330
5
100
AcDbSymbolTableRecord
100
AcDbLinetypeTableRecord
  2
CENTER
 70
    0
  3
Center ____ _ ____ _ ____ _ ____ _ ____ _ ____
 72
   65
 73
    4
 40
50.8
 49
31.75
 74
    0
 49
-6.35
 74
    0
 49
6.35
 74
    0
 49
-6.35
 74
    0
  0
LTYPE
  5
47
330
5
100
AcDbSymbolTableRecord
100
AcDbLinetypeTableRecord
  2
CENTERTINY
 70
    0
  3
Center (.15x) ___ _ ___ _ ___ _ ___ _ ___ _ ___
 72
   65
 73
    4
 40
7.62
 49
4.7625
 74
    0
 49
-0.9525
 74
    0
 49
0.9525
 74
    0
 49
-0.9525
 74
    0
  0
LTYPE
  5
48
330
5
100
AcDbSymbolTableRecord
100
AcDbLinetypeTableRecord
  2
CENTER2
 70
    0
  3
Center (.5x) ___ _ ___ _ ___ _ ___ _ ___ _ ___
 72
   65
 73
    4
 40
28.575
 49
19.05
 74
    0
 49
-3.175
 74
    0
 49
3.175
 74
    0
 49
-3.175
 74
    0
  0
LTYPE
  5
49
330
5
100
AcDbSymbolTableRecord
100
AcDbLinetypeTableRecord
  2
CENTERX2
 70
    0
  3
Center (2x) ________  __  ________  __  _____
 72
   65
 73
    4
 40
101.6
 49
63.5
 74
    0
 49
-12.7
 74
    0
 49
12.7
 74
    0
 49
-12.7
 74
    0
  0
ENDTAB
  0
TABLE
  2
LAYER
  5
2
330
0
100
AcDbSymbolTable
 70
    1
  0
LAYER
  5
10
330
2
100
AcDbSymbolTableRecord
100
AcDbLayerTableRecord
  2
0
 70
    0
 62
    7
  6
CONTINUOUS
370
    0
390
F
  0
LAYER
  5
4A
330
2
100
AcDbSymbolTableRecord
100
AcDbLayerTableRecord
  2
01_LASER
 70
    0
 62
    1
  6
CONTINUOUS
370
    0
390
F
  0
LAYER
  5
4B
330
2
100
AcDbSymbolTableRecord
100
AcDbLayerTableRecord
  2
02_MARKING
 70
    0
 62
    7
  6
CONTINUOUS
370
   50
390
F
  0
LAYER
  5
4C
330
2
100
AcDbSymbolTableRecord
100
AcDbLayerTableRecord
  2
03_BME_OUTLINE
 70
    0
 62
    2
  6
CONTINUOUS
370
    0
390
F
  0
LAYER
  5
4D
330
2
100
AcDbSymbolTableRecord
100
AcDbLayerTableRecord
  2
03_PI_OUTLINE
 70
    0
 62
    2
  6
CONTINUOUS
370
   -3
390
F
  0
LAYER
  5
4E
330
2
100
AcDbSymbolTableRecord
100
AcDbLayerTableRecord
  2
03_PMS_OUTLINE
 70
    0
 62
    2
  6
CONTINUOUS
370
    0
390
F
  0
ENDTAB
  0
TABLE
  2
STYLE
  5
3
330
0
100
AcDbSymbolTable
 70
    3
  0
STYLE
  5
4F
330
2
100
AcDbSymbolTableRecord
100
AcDbTextStyleTableRecord
  2
Standard
 70
    0
 40
0
 41
1
 50
0
 71
    0
 42
1
  3
txt
  4

  0
ENDTAB
  0
TABLE
  2
VIEW
  5
6
330
0
100
AcDbSymbolTable
 70
    0
  0
ENDTAB
  0
TABLE
  2
UCS
  5
7
330
0
100
AcDbSymbolTable
 70
    0
  0
ENDTAB
  0
TABLE
  2
APPID
  5
9
330
0
100
AcDbSymbolTable
 70
    1
  0
APPID
  5
12
330
9
100
AcDbSymbolTableRecord
100
AcDbRegAppTableRecord
  2
ACAD
 70
    0
  0
APPID
  5
50
330
9
100
AcDbSymbolTableRecord
100
AcDbRegAppTableRecord
  2
LibreCad
 70
    0
  0
ENDTAB
  0
TABLE
  2
DIMSTYLE
  5
A
330
0
100
AcDbSymbolTable
 70
    1
100
AcDbDimStyleTable
 71
    1
  0
DIMSTYLE
105
51
330
A
100
AcDbSymbolTableRecord
100
AcDbDimStyleTableRecord
  2
Standard
 70
    0
 40
0.0393701
 41
0.1
 42
0.025
 43
0.38
 44
0.05
 45
0
 46
0
 47
0
 48
0
 49
0.04
140
0.1
141
0.09
142
0
143
25.4
144
0.0393701
145
0
146
1
147
0.025
148
0
 71
    0
 72
    0
 73
    0
 74
    1
 75
    0
 76
    0
 77
    0
 78
    1
 79
    0
170
    0
171
    2
172
    0
173
    0
174
    0
175
    0
176
    0
177
    0
178
    0
179
    2
271
    4
272
    4
273
    2
274
    2
275
    0
276
    0
277
    2
278
    0
279
    0
280
    0
281
    0
282
    0
283
    1
284
    0
285
    0
286
    0
288
    0
289
    3
340
standard
341

371
   -2
372
   -2
  0
ENDTAB
  0
TABLE
  2
BLOCK_RECORD
  5
1
330
0
100
AcDbSymbolTable
 70
    2
  0
BLOCK_RECORD
  5
1F
330
1
100
AcDbSymbolTableRecord
100
AcDbBlockTableRecord
  2
*Model_Space
 70
    0
280
    1
281
    0
  0
BLOCK_RECORD
  5
1E
330
1
100
AcDbSymbolTableRecord
100
AcDbBlockTableRecord
  2
*Paper_Space
 70
    0
280
    1
281
    0
  0
BLOCK_RECORD
  5
52
330
1
100
AcDbSymbolTableRecord
100
AcDbBlockTableRecord
  2
FIGURE_CIRCLE
 70
    0
280
    1
281
    0
  0
BLOCK_RECORD
  5
55
330
1
100
AcDbSymbolTableRecord
100
AcDbBlockTableRecord
  2
FIGURE_SQUARE
 70
    0
280
    1
281
    0
  0
BLOCK_RECORD
  5
58
330
1
100
AcDbSymbolTableRecord
100
AcDbBlockTableRecord
  2
FIGURE_HEX
 70
    0
280
    1
281
    0
  0
BLOCK_RECORD
  5
5B
330
1
100
AcDbSymbolTableRecord
100
AcDbBlockTableRecord
  2
FIGURE_OCT
 70
    0
280
    1
281
    0
  0
BLOCK_RECORD
  5
5E
330
1
100
AcDbSymbolTableRecord
100
AcDbBlockTableRecord
  2
FIGURE_OBLONG
 70
    0
280
    1
281
    0
  0
BLOCK_RECORD
  5
61
330
1
100
AcDbSymbolTableRecord
100
AcDbBlockTableRecord
  2
FIGURE_TRI
 70
    0
280
    1
281
    0
  0
BLOCK_RECORD
  5
64
330
1
100
AcDbSymbolTableRecord
100
AcDbBlockTableRecord
  2
FIGURE_CROSS
 70
    0
280
    1
281
    0
  0
BLOCK_RECORD
  5
67
330
1
100
AcDbSymbolTableRecord
100
AcDbBlockTableRecord
  2
FIGURE_DIAMOND
 70
    0
280
    1
281
    0
  0
BLOCK_RECORD
  5
6A
330
1
100
AcDbSymbolTableRecord
100
AcDbBlockTableRecord
  2
RECT
 70
    0
280
    1
281
    0
  0
BLOCK_RECORD
  5
6D
330
1
100
AcDbSymbolTableRecord
100
AcDbBlockTableRecord
  2
PIE
 70
    0
280
    1
281
    0
  0
BLOCK_RECORD
  5
70
330
1
100
AcDbSymbolTableRecord
100
AcDbBlockTableRecord
  2
OCTAGONP
 70
    0
280
    1
281
    0
  0
BLOCK_RECORD
  5
73
330
1
100
AcDbSymbolTableRecord
100
AcDbBlockTableRecord
  2
SQUAREP
 70
    0
280
    1
281
    0
  0
BLOCK_RECORD
  5
76
330
1
100
AcDbSymbolTableRecord
100
AcDbBlockTableRecord
  2
ROUNDP
 70
    0
280
    1
281
    0
  0
BLOCK_RECORD
  5
79
330
1
100
AcDbSymbolTableRecord
100
AcDbBlockTableRecord
  2
ANNULUSP
 70
    0
280
    1
281
    0
  0
BLOCK_RECORD
  5
7C
330
1
100
AcDbSymbolTableRecord
100
AcDbBlockTableRecord
  2
THERMALP
 70
    0
280
    1
281
    0
  0
BLOCK_RECORD
  5
7F
330
1
100
AcDbSymbolTableRecord
100
AcDbBlockTableRecord
  2
OCTAGONV
 70
    0
280
    1
281
    0
  0
BLOCK_RECORD
  5
82
330
1
100
AcDbSymbolTableRecord
100
AcDbBlockTableRecord
  2
SQUAREV
 70
    0
280
    1
281
    0
  0
BLOCK_RECORD
  5
85
330
1
100
AcDbSymbolTableRecord
100
AcDbBlockTableRecord
  2
ROUNDV
 70
    0
280
    1
281
    0
  0
BLOCK_RECORD
  5
88
330
1
100
AcDbSymbolTableRecord
100
AcDbBlockTableRecord
  2
ANNULUSV
 70
    0
280
    1
281
    0
  0
BLOCK_RECORD
  5
8B
330
1
100
AcDbSymbolTableRecord
100
AcDbBlockTableRecord
  2
THERMALV
 70
    0
280
    1
281
    0
  0
BLOCK_RECORD
  5
8E
330
1
100
AcDbSymbolTableRecord
100
AcDbBlockTableRecord
  2
RECT-0
 70
    0
280
    1
281
    0
  0
BLOCK_RECORD
  5
91
330
1
100
AcDbSymbolTableRecord
100
AcDbBlockTableRecord
  2
PIE-0
 70
    0
280
    1
281
    0
  0
BLOCK_RECORD
  5
94
330
1
100
AcDbSymbolTableRecord
100
AcDbBlockTableRecord
  2
OCTAGONP-0
 70
    0
280
    1
281
    0
  0
BLOCK_RECORD
  5
97
330
1
100
AcDbSymbolTableRecord
100
AcDbBlockTableRecord
  2
SQUAREP-0
 70
    0
280
    1
281
    0
  0
BLOCK_RECORD
  5
9A
330
1
100
AcDbSymbolTableRecord
100
AcDbBlockTableRecord
  2
ROUNDP-0
 70
    0
280
    1
281
    0
  0
BLOCK_RECORD
  5
9D
330
1
100
AcDbSymbolTableRecord
100
AcDbBlockTableRecord
  2
ANNULUSP-0
 70
    0
280
    1
281
    0
  0
BLOCK_RECORD
  5
A0
330
1
100
AcDbSymbolTableRecord
100
AcDbBlockTableRecord
  2
THERMALP-0
 70
    0
280
    1
281
    0
  0
BLOCK_RECORD
  5
A3
330
1
100
AcDbSymbolTableRecord
100
AcDbBlockTableRecord
  2
OCTAGONV-0
 70
    0
280
    1
281
    0
  0
BLOCK_RECORD
  5
A6
330
1
100
AcDbSymbolTableRecord
100
AcDbBlockTableRecord
  2
SQUAREV-0
 70
    0
280
    1
281
    0
  0
BLOCK_RECORD
  5
A9
330
1
100
AcDbSymbolTableRecord
100
AcDbBlockTableRecord
  2
ROUNDV-0
 70
    0
280
    1
281
    0
  0
BLOCK_RECORD
  5
AC
330
1
100
AcDbSymbolTableRecord
100
AcDbBlockTableRecord
  2
ANNULUSV-0
 70
    0
280
    1
281
    0
  0
BLOCK_RECORD
  5
AF
330
1
100
AcDbSymbolTableRecord
100
AcDbBlockTableRecord
  2
THERMALV-0
 70
    0
280
    1
281
    0
  0
BLOCK_RECORD
  5
B2
330
1
100
AcDbSymbolTableRecord
100
AcDbBlockTableRecord
  2
nodemcu
 70
    0
280
    1
281
    0
  0
BLOCK_RECORD
  5
B5
330
1
100
AcDbSymbolTableRecord
100
AcDbBlockTableRecord
  2
SQUAREP-1
 70
    0
280
    1
281
    0
  0
BLOCK_RECORD
  5
B8
330
1
100
AcDbSymbolTableRecord
100
AcDbBlockTableRecord
  2
SQUAREP-2
 70
    0
280
    1
281
    0
  0
BLOCK_RECORD
  5
BB
330
1
100
AcDbSymbolTableRecord
100
AcDbBlockTableRecord
  2
ROUNDP-1
 70
    0
280
    1
281
    0
  0
BLOCK_RECORD
  5
BE
330
1
100
AcDbSymbolTableRecord
100
AcDbBlockTableRecord
  2
SQUAREP-3
 70
    0
280
    1
281
    0
  0
BLOCK_RECORD
  5
C1
330
1
100
AcDbSymbolTableRecord
100
AcDbBlockTableRecord
  2
ROUNDP-2
 70
    0
280
    1
281
    0
  0
ENDTAB
  0
ENDSEC
  0
SECTION
  2
BLOCKS
  0
BLOCK
  5
20
330
1F
100
AcDbEntity
  8
0
100
AcDbBlockBegin
  2
*Model_Space
 70
    0
 10
0
 20
0
 30
0
  3
*Model_Space
  1

  0
ENDBLK
  5
21
330
1F
100
AcDbEntity
  8
0
100
AcDbBlockEnd
  0
BLOCK
  5
1C
330
1B
100
AcDbEntity
  8
0
100
AcDbBlockBegin
  2
*Paper_Space
 70
    0
 10
0
 20
0
 30
0
  3
*Paper_Space
  1

  0
ENDBLK
  5
1D
330
1F
100
AcDbEntity
  8
0
100
AcDbBlockEnd
  0
BLOCK
  5
53
330
52
100
AcDbEntity
  8
0
100
AcDbBlockBegin
  2
FIGURE_CIRCLE
 70
    0
 10
0
 20
0
  3
FIGURE_CIRCLE
  1

  0
CIRCLE
  5
C4
100
AcDbEntity
  8
0
  6
ByLayer
 62
  256
370
   -1
100
AcDbCircle
 10
0
 20
0
 40
0.5
  0
ENDBLK
  5
54
330
52
100
AcDbEntity
  8
0
100
AcDbBlockEnd
  0
BLOCK
  5
56
330
55
100
AcDbEntity
  8
0
100
AcDbBlockBegin
  2
FIGURE_SQUARE
 70
    0
 10
0
 20
0
  3
FIGURE_SQUARE
  1

  0
LWPOLYLINE
  5
C5
100
AcDbEntity
  8
0
  6
ByLayer
 62
  256
370
   -1
100
AcDbPolyline
 90
    4
 70
    1
 43
0
 10
-0.5
 20
-0.5
 10
-0.5
 20
0.5
 10
0.5
 20
0.5
 10
0.5
 20
-0.5
  0
ENDBLK
  5
57
330
55
100
AcDbEntity
  8
0
100
AcDbBlockEnd
  0
BLOCK
  5
59
330
58
100
AcDbEntity
  8
0
100
AcDbBlockBegin
  2
FIGURE_HEX
 70
    0
 10
0
 20
0
  3
FIGURE_HEX
  1

  0
LWPOLYLINE
  5
C6
100
AcDbEntity
  8
0
  6
ByLayer
 62
  256
370
   -1
100
AcDbPolyline
 90
    6
 70
    1
 43
0
 10
-0.5
 20
0
 10
-0.25
 20
0.5
 10
0.25
 20
0.5
 10
0.5
 20
0
 10
0.25
 20
-0.5
 10
-0.25
 20
-0.5
  0
ENDBLK
  5
5A
330
58
100
AcDbEntity
  8
0
100
AcDbBlockEnd
  0
BLOCK
  5
5C
330
5B
100
AcDbEntity
  8
0
100
AcDbBlockBegin
  2
FIGURE_OCT
 70
    0
 10
0
 20
0
  3
FIGURE_OCT
  1

  0
LWPOLYLINE
  5
C7
100
AcDbEntity
  8
0
  6
ByLayer
 62
  256
370
   -1
100
AcDbPolyline
 90
    8
 70
    1
 43
0
 10
-0.5
 20
-0.2071
 10
-0.5
 20
0.2071
 10
-0.2071
 20
0.5
 10
0.2071
 20
0.5
 10
0.5
 20
0.2071
 10
0.5
 20
-0.2071
 10
0.2071
 20
-0.5
 10
-0.2071
 20
-0.5
  0
ENDBLK
  5
5D
330
5B
100
AcDbEntity
  8
0
100
AcDbBlockEnd
  0
BLOCK
  5
5F
330
5E
100
AcDbEntity
  8
0
100
AcDbBlockBegin
  2
FIGURE_OBLONG
 70
    0
 10
0
 20
0
  3
FIGURE_OBLONG
  1

  0
LWPOLYLINE
  5
C8
100
AcDbEntity
  8
0
  6
ByLayer
 62
  256
370
   -1
100
AcDbPolyline
 90
   12
 70
    1
 43
0
 10
-0.5
 20
-0.125
 10
-0.5
 20
0.125
 10
-0.416
 20
0.375
 10
-0.25
 20
0.5
 10
0.25
 20
0.5
 10
0.416
 20
0.375
 10
0.5
 20
0.125
 10
0.5
 20
-0.125
 10
0.416
 20
-0.375
 10
0.25
 20
-0.5
 10
-0.25
 20
-0.5
 10
-0.416
 20
-0.375
  0
ENDBLK
  5
60
330
5E
100
AcDbEntity
  8
0
100
AcDbBlockEnd
  0
BLOCK
  5
62
330
61
100
AcDbEntity
  8
0
100
AcDbBlockBegin
  2
FIGURE_TRI
 70
    0
 10
0
 20
0
  3
FIGURE_TRI
  1

  0
LWPOLYLINE
  5
C9
100
AcDbEntity
  8
0
  6
ByLayer
 62
  256
370
   -1
100
AcDbPolyline
 90
    3
 70
    1
 43
0
 10
-0.5
 20
-0.5
 10
0
 20
0.5
 10
0.5
 20
-0.5
  0
ENDBLK
  5
63
330
61
100
AcDbEntity
  8
0
100
AcDbBlockEnd
  0
BLOCK
  5
65
330
64
100
AcDbEntity
  8
0
100
AcDbBlockBegin
  2
FIGURE_CROSS
 70
    0
 10
0
 20
0
  3
FIGURE_CROSS
  1

  0
LWPOLYLINE
  5
CA
100
AcDbEntity
  8
0
  6
ByLayer
 62
  256
370
   -1
100
AcDbPolyline
 90
    2
 70
    0
 43
0
 10
-0.5
 20
0
 10
0.5
 20
0
  0
LWPOLYLINE
  5
CB
100
AcDbEntity
  8
0
  6
ByLayer
 62
  256
370
   -1
100
AcDbPolyline
 90
    2
 70
    0
 43
0
 10
0
 20
0.5
 10
0
 20
-0.5
  0
ENDBLK
  5
66
330
64
100
AcDbEntity
  8
0
100
AcDbBlockEnd
  0
BLOCK
  5
68
330
67
100
AcDbEntity
  8
0
100
AcDbBlockBegin
  2
FIGURE_DIAMOND
 70
    0
 10
0
 20
0
  3
FIGURE_DIAMOND
  1

  0
LWPOLYLINE
  5
CC
100
AcDbEntity
  8
0
  6
ByLayer
 62
  256
370
   -1
100
AcDbPolyline
 90
    4
 70
    1
 43
0
 10
-0.5
 20
0
 10
0
 20
0.5
 10
0.5
 20
0
 10
0
 20
-0.5
  0
ENDBLK
  5
69
330
67
100
AcDbEntity
  8
0
100
AcDbBlockEnd
  0
BLOCK
  5
6B
330
6A
100
AcDbEntity
  8
0
100
AcDbBlockBegin
  2
RECT
 70
    0
 10
0
 20
0
  3
RECT
  1

  0
SOLID
  5
CD
100
AcDbEntity
  8
0
  6
ByLayer
 62
  256
370
   -1
100
AcDbTrace
 10
-0.5
 20
-0.5
 30
0
 11
0.5
 21
-0.5
 31
0
 12
-0.5
 22
0.5
 32
0
 13
0.5
 23
0.5
 33
0
  0
ENDBLK
  5
6C
330
6A
100
AcDbEntity
  8
0
100
AcDbBlockEnd
  0
BLOCK
  5
6E
330
6D
100
AcDbEntity
  8
0
100
AcDbBlockBegin
  2
PIE
 70
    0
 10
0
 20
0
  3
PIE
  1

  0
CIRCLE
  5
CE
100
AcDbEntity
  8
0
  6
ByLayer
 62
  256
370
   -1
100
AcDbCircle
 10
0
 20
0
 40
0.5
  0
ENDBLK
  5
6F
330
6D
100
AcDbEntity
  8
0
100
AcDbBlockEnd
  0
BLOCK
  5
71
330
70
100
AcDbEntity
  8
0
100
AcDbBlockBegin
  2
OCTAGONP
 70
    0
 10
0
 20
0
  3
OCTAGONP
  1

  0
LWPOLYLINE
  5
CF
100
AcDbEntity
  8
0
  6
ByLayer
 62
  256
370
   -1
100
AcDbPolyline
 90
    8
 70
    1
 43
0
 10
-0.5
 20
-0.2071
 10
-0.5
 20
0.2071
 10
-0.2071
 20
0.5
 10
0.2071
 20
0.5
 10
0.5
 20
0.2071
 10
0.5
 20
-0.2071
 10
0.2071
 20
-0.5
 10
-0.2071
 20
-0.5
  0
ENDBLK
  5
72
330
70
100
AcDbEntity
  8
0
100
AcDbBlockEnd
  0
BLOCK
  5
74
330
73
100
AcDbEntity
  8
0
100
AcDbBlockBegin
  2
SQUAREP
 70
    0
 10
0
 20
0
  3
SQUAREP
  1

  0
SOLID
  5
D0
100
AcDbEntity
  8
0
  6
ByLayer
 62
  256
370
   -1
100
AcDbTrace
 10
-0.5
 20
-0.5
 30
0
 11
0.5
 21
-0.5
 31
0
 12
-0.5
 22
0.5
 32
0
 13
0.5
 23
0.5
 33
0
  0
ENDBLK
  5
75
330
73
100
AcDbEntity
  8
0
100
AcDbBlockEnd
  0
BLOCK
  5
77
330
76
100
AcDbEntity
  8
0
100
AcDbBlockBegin
  2
ROUNDP
 70
    0
 10
0
 20
0
  3
ROUNDP
  1

  0
CIRCLE
  5
D1
100
AcDbEntity
  8
0
  6
ByLayer
 62
  256
370
   -1
100
AcDbCircle
 10
0
 20
0
 40
0.5
  0
ENDBLK
  5
78
330
76
100
AcDbEntity
  8
0
100
AcDbBlockEnd
  0
BLOCK
  5
7A
330
79
100
AcDbEntity
  8
0
100
AcDbBlockBegin
  2
ANNULUSP
 70
    0
 10
0
 20
0
  3
ANNULUSP
  1

  0
CIRCLE
  5
D2
100
AcDbEntity
  8
0
  6
ByLayer
 62
  256
370
   -1
100
AcDbCircle
 10
0
 20
0
 40
0.5
  0
ENDBLK
  5
7B
330
79
100
AcDbEntity
  8
0
100
AcDbBlockEnd
  0
BLOCK
  5
7D
330
7C
100
AcDbEntity
  8
0
100
AcDbBlockBegin
  2
THERMALP
 70
    0
 10
0
 20
0
  3
THERMALP
  1

  0
LINE
  5
D3
100
AcDbEntity
  8
0
  6
ByLayer
 62
  256
370
   -1
100
AcDbLine
 10
-0.2379
 20
0.45
 11
0.2379
 21
0.45
  0
LINE
  5
D4
100
AcDbEntity
  8
0
  6
ByLayer
 62
  256
370
   -1
100
AcDbLine
 10
0.45
 20
0.2379
 11
0.45
 21
-0.2379
  0
LINE
  5
D5
100
AcDbEntity
  8
0
  6
ByLayer
 62
  256
370
   -1
100
AcDbLine
 10
0.2379
 20
-0.45
 11
-0.2379
 21
-0.45
  0
LINE
  5
D6
100
AcDbEntity
  8
0
  6
ByLayer
 62
  256
370
   -1
100
AcDbLine
 10
-0.45
 20
-0.2379
 11
-0.45
 21
0.2379
  0
ENDBLK
  5
7E
330
7C
100
AcDbEntity
  8
0
100
AcDbBlockEnd
  0
BLOCK
  5
80
330
7F
100
AcDbEntity
  8
0
100
AcDbBlockBegin
  2
OCTAGONV
 70
    0
 10
0
 20
0
  3
OCTAGONV
  1

  0
LWPOLYLINE
  5
D7
100
AcDbEntity
  8
0
  6
ByLayer
 62
  256
370
   -1
100
AcDbPolyline
 90
    8
 70
    1
 43
0
 10
-0.5
 20
-0.2071
 10
-0.5
 20
0.2071
 10
-0.2071
 20
0.5
 10
0.2071
 20
0.5
 10
0.5
 20
0.2071
 10
0.5
 20
-0.2071
 10
0.2071
 20
-0.5
 10
-0.2071
 20
-0.5
  0
ENDBLK
  5
81
330
7F
100
AcDbEntity
  8
0
100
AcDbBlockEnd
  0
BLOCK
  5
83
330
82
100
AcDbEntity
  8
0
100
AcDbBlockBegin
  2
SQUAREV
 70
    0
 10
0
 20
0
  3
SQUAREV
  1

  0
SOLID
  5
D8
100
AcDbEntity
  8
0
  6
ByLayer
 62
  256
370
   -1
100
AcDbTrace
 10
-0.5
 20
-0.5
 30
0
 11
0.5
 21
-0.5
 31
0
 12
-0.5
 22
0.5
 32
0
 13
0.5
 23
0.5
 33
0
  0
ENDBLK
  5
84
330
82
100
AcDbEntity
  8
0
100
AcDbBlockEnd
  0
BLOCK
  5
86
330
85
100
AcDbEntity
  8
0
100
AcDbBlockBegin
  2
ROUNDV
 70
    0
 10
0
 20
0
  3
ROUNDV
  1

  0
CIRCLE
  5
D9
100
AcDbEntity
  8
0
  6
ByLayer
 62
  256
370
   -1
100
AcDbCircle
 10
0
 20
0
 40
0.5
  0
ENDBLK
  5
87
330
85
100
AcDbEntity
  8
0
100
AcDbBlockEnd
  0
BLOCK
  5
89
330
88
100
AcDbEntity
  8
0
100
AcDbBlockBegin
  2
ANNULUSV
 70
    0
 10
0
 20
0
  3
ANNULUSV
  1

  0
CIRCLE
  5
DA
100
AcDbEntity
  8
0
  6
ByLayer
 62
  256
370
   -1
100
AcDbCircle
 10
0
 20
0
 40
0.5
  0
ENDBLK
  5
8A
330
88
100
AcDbEntity
  8
0
100
AcDbBlockEnd
  0
BLOCK
  5
8C
330
8B
100
AcDbEntity
  8
0
100
AcDbBlockBegin
  2
THERMALV
 70
    0
 10
0
 20
0
  3
THERMALV
  1

  0
LINE
  5
DB
100
AcDbEntity
  8
0
  6
ByLayer
 62
  256
370
   -1
100
AcDbLine
 10
-0.2379
 20
0.45
 11
0.2379
 21
0.45
  0
LINE
  5
DC
100
AcDbEntity
  8
0
  6
ByLayer
 62
  256
370
   -1
100
AcDbLine
 10
0.45
 20
0.2379
 11
0.45
 21
-0.2379
  0
LINE
  5
DD
100
AcDbEntity
  8
0
  6
ByLayer
 62
  256
370
   -1
100
AcDbLine
 10
0.2379
 20
-0.45
 11
-0.2379
 21
-0.45
  0
LINE
  5
DE
100
AcDbEntity
  8
0
  6
ByLayer
 62
  256
370
   -1
100
AcDbLine
 10
-0.45
 20
-0.2379
 11
-0.45
 21
0.2379
  0
ENDBLK
  5
8D
330
8B
100
AcDbEntity
  8
0
100
AcDbBlockEnd
  0
BLOCK
  5
8F
330
8E
100
AcDbEntity
  8
0
100
AcDbBlockBegin
  2
RECT-0
 70
    0
 10
0
 20
0
  3
RECT-0
  1

  0
SOLID
  5
DF
100
AcDbEntity
  8
0
  6
ByLayer
 62
  256
370
   -1
100
AcDbTrace
 10
-0.5
 20
-0.5
 30
0
 11
0.5
 21
-0.5
 31
0
 12
-0.5
 22
0.5
 32
0
 13
0.5
 23
0.5
 33
0
  0
ENDBLK
  5
90
330
8E
100
AcDbEntity
  8
0
100
AcDbBlockEnd
  0
BLOCK
  5
92
330
91
100
AcDbEntity
  8
0
100
AcDbBlockBegin
  2
PIE-0
 70
    0
 10
0
 20
0
  3
PIE-0
  1

  0
CIRCLE
  5
E0
100
AcDbEntity
  8
0
  6
ByLayer
 62
  256
370
   -1
100
AcDbCircle
 10
0
 20
0
 40
0.5
  0
ENDBLK
  5
93
330
91
100
AcDbEntity
  8
0
100
AcDbBlockEnd
  0
BLOCK
  5
95
330
94
100
AcDbEntity
  8
0
100
AcDbBlockBegin
  2
OCTAGONP-0
 70
    0
 10
0
 20
0
  3
OCTAGONP-0
  1

  0
LWPOLYLINE
  5
E1
100
AcDbEntity
  8
0
  6
ByLayer
 62
  256
370
   -1
100
AcDbPolyline
 90
    8
 70
    1
 43
0
 10
-0.5
 20
-0.2071
 10
-0.5
 20
0.2071
 10
-0.2071
 20
0.5
 10
0.2071
 20
0.5
 10
0.5
 20
0.2071
 10
0.5
 20
-0.2071
 10
0.2071
 20
-0.5
 10
-0.2071
 20
-0.5
  0
ENDBLK
  5
96
330
94
100
AcDbEntity
  8
0
100
AcDbBlockEnd
  0
BLOCK
  5
98
330
97
100
AcDbEntity
  8
0
100
AcDbBlockBegin
  2
SQUAREP-0
 70
    0
 10
0
 20
0
  3
SQUAREP-0
  1

  0
SOLID
  5
E2
100
AcDbEntity
  8
0
  6
ByLayer
 62
  256
370
   -1
100
AcDbTrace
 10
-0.5
 20
-0.5
 30
0
 11
0.5
 21
-0.5
 31
0
 12
-0.5
 22
0.5
 32
0
 13
0.5
 23
0.5
 33
0
  0
ENDBLK
  5
99
330
97
100
AcDbEntity
  8
0
100
AcDbBlockEnd
  0
BLOCK
  5
9B
330
9A
100
AcDbEntity
  8
0
100
AcDbBlockBegin
  2
ROUNDP-0
 70
    0
 10
0
 20
0
  3
ROUNDP-0
  1

  0
CIRCLE
  5
E3
100
AcDbEntity
  8
0
  6
ByLayer
 62
  256
370
   -1
100
AcDbCircle
 10
0
 20
0
 40
0.5
  0
ENDBLK
  5
9C
330
9A
100
AcDbEntity
  8
0
100
AcDbBlockEnd
  0
BLOCK
  5
9E
330
9D
100
AcDbEntity
  8
0
100
AcDbBlockBegin
  2
ANNULUSP-0
 70
    0
 10
0
 20
0
  3
ANNULUSP-0
  1

  0
CIRCLE
  5
E4
100
AcDbEntity
  8
0
  6
ByLayer
 62
  256
370
   -1
100
AcDbCircle
 10
0
 20
0
 40
0.5
  0
ENDBLK
  5
9F
330
9D
100
AcDbEntity
  8
0
100
AcDbBlockEnd
  0
BLOCK
  5
A1
330
A0
100
AcDbEntity
  8
0
100
AcDbBlockBegin
  2
THERMALP-0
 70
    0
 10
0
 20
0
  3
THERMALP-0
  1

  0
LINE
  5
E5
100
AcDbEntity
  8
0
  6
ByLayer
 62
  256
370
   -1
100
AcDbLine
 10
-0.2379
 20
0.45
 11
0.2379
 21
0.45
  0
LINE
  5
E6
100
AcDbEntity
  8
0
  6
ByLayer
 62
  256
370
   -1
100
AcDbLine
 10
0.45
 20
0.2379
 11
0.45
 21
-0.2379
  0
LINE
  5
E7
100
AcDbEntity
  8
0
  6
ByLayer
 62
  256
370
   -1
100
AcDbLine
 10
0.2379
 20
-0.45
 11
-0.2379
 21
-0.45
  0
LINE
  5
E8
100
AcDbEntity
  8
0
  6
ByLayer
 62
  256
370
   -1
100
AcDbLine
 10
-0.45
 20
-0.2379
 11
-0.45
 21
0.2379
  0
ENDBLK
  5
A2
330
A0
100
AcDbEntity
  8
0
100
AcDbBlockEnd
  0
BLOCK
  5
A4
330
A3
100
AcDbEntity
  8
0
100
AcDbBlockBegin
  2
OCTAGONV-0
 70
    0
 10
0
 20
0
  3
OCTAGONV-0
  1

  0
LWPOLYLINE
  5
E9
100
AcDbEntity
  8
0
  6
ByLayer
 62
  256
370
   -1
100
AcDbPolyline
 90
    8
 70
    1
 43
0
 10
-0.5
 20
-0.2071
 10
-0.5
 20
0.2071
 10
-0.2071
 20
0.5
 10
0.2071
 20
0.5
 10
0.5
 20
0.2071
 10
0.5
 20
-0.2071
 10
0.2071
 20
-0.5
 10
-0.2071
 20
-0.5
  0
ENDBLK
  5
A5
330
A3
100
AcDbEntity
  8
0
100
AcDbBlockEnd
  0
BLOCK
  5
A7
330
A6
100
AcDbEntity
  8
0
100
AcDbBlockBegin
  2
SQUAREV-0
 70
    0
 10
0
 20
0
  3
SQUAREV-0
  1

  0
SOLID
  5
EA
100
AcDbEntity
  8
0
  6
ByLayer
 62
  256
370
   -1
100
AcDbTrace
 10
-0.5
 20
-0.5
 30
0
 11
0.5
 21
-0.5
 31
0
 12
-0.5
 22
0.5
 32
0
 13
0.5
 23
0.5
 33
0
  0
ENDBLK
  5
A8
330
A6
100
AcDbEntity
  8
0
100
AcDbBlockEnd
  0
BLOCK
  5
AA
330
A9
100
AcDbEntity
  8
0
100
AcDbBlockBegin
  2
ROUNDV-0
 70
    0
 10
0
 20
0
  3
ROUNDV-0
  1

  0
CIRCLE
  5
EB
100
AcDbEntity
  8
0
  6
ByLayer
 62
  256
370
   -1
100
AcDbCircle
 10
0
 20
0
 40
0.5
  0
ENDBLK
  5
AB
330
A9
100
AcDbEntity
  8
0
100
AcDbBlockEnd
  0
BLOCK
  5
AD
330
AC
100
AcDbEntity
  8
0
100
AcDbBlockBegin
  2
ANNULUSV-0
 70
    0
 10
0
 20
0
  3
ANNULUSV-0
  1

  0
CIRCLE
  5
EC
100
AcDbEntity
  8
0
  6
ByLayer
 62
  256
370
   -1
100
AcDbCircle
 10
0
 20
0
 40
0.5
  0
ENDBLK
  5
AE
330
AC
100
AcDbEntity
  8
0
100
AcDbBlockEnd
  0
BLOCK
  5
B0
330
AF
100
AcDbEntity
  8
0
100
AcDbBlockBegin
  2
THERMALV-0
 70
    0
 10
0
 20
0
  3
THERMALV-0
  1

  0
LINE
  5
ED
100
AcDbEntity
  8
0
  6
ByLayer
 62
  256
370
   -1
100
AcDbLine
 10
-0.2379
 20
0.45
 11
0.2379
 21
0.45
  0
LINE
  5
EE
100
AcDbEntity
  8
0
  6
ByLayer
 62
  256
370
   -1
100
AcDbLine
 10
0.45
 20
0.2379
 11
0.45
 21
-0.2379
  0
LINE
  5
EF
100
AcDbEntity
  8
0
  6
ByLayer
 62
  256
370
   -1
100
AcDbLine
 10
0.2379
 20
-0.45
 11
-0.2379
 21
-0.45
  0
LINE
  5
F0
100
AcDbEntity
  8
0
  6
ByLayer
 62
  256
370
   -1
100
AcDbLine
 10
-0.45
 20
-0.2379
 11
-0.45
 21
0.2379
  0
ENDBLK
  5
B1
330
AF
100
AcDbEntity
  8
0
100
AcDbBlockEnd
  0
BLOCK
  5
B3
330
B2
100
AcDbEntity
  8
0
100
AcDbBlockBegin
  2
nodemcu
 70
    0
 10
0
 20
0
  3
nodemcu
  1

  0
LINE
  5
F1
100
AcDbEntity
  8
03_PI_OUTLINE
  6
ByLayer
 62
  256
370
   -1
100
AcDbLine
 10
0
 20
48.26
 11
25.4
 21
48.26
  0
LINE
  5
F2
100
AcDbEntity
  8
03_PI_OUTLINE
  6
ByLayer
 62
  256
370
   -1
100
AcDbLine
 10
25.4
 20
48.26
 11
25.4
 21
0
  0
LINE
  5
F3
100
AcDbEntity
  8
03_PI_OUTLINE
  6
ByLayer
 62
  256
370
   -1
100
AcDbLine
 10
25.4
 20
0
 11
0
 21
0
  0
LINE
  5
F4
100
AcDbEntity
  8
03_PI_OUTLINE
  6
ByLayer
 62
  256
370
   -1
100
AcDbLine
 10
0
 20
0
 11
0
 21
48.26
  0
CIRCLE
  5
F5
100
AcDbEntity
  8
03_PI_OUTLINE
  6
ByLayer
 62
  256
370
   -1
100
AcDbCircle
 10
2.54
 20
45.72
 40
1.6
  0
CIRCLE
  5
F6
100
AcDbEntity
  8
03_PI_OUTLINE
  6
ByLayer
 62
  256
370
   -1
100
AcDbCircle
 10
22.86
 20
45.72
 40
1.6
  0
CIRCLE
  5
F7
100
AcDbEntity
  8
03_PI_OUTLINE
  6
ByLayer
 62
  256
370
   -1
100
AcDbCircle
 10
22.86
 20
2.54
 40
1.6
  0
CIRCLE
  5
F8
100
AcDbEntity
  8
03_PI_OUTLINE
  6
ByLayer
 62
  256
370
   -1
100
AcDbCircle
 10
2.54
 20
2.54
 40
1.6
  0
LINE
  5
F9
100
AcDbEntity
  8
03_PI_OUTLINE
  6
ByLayer
 62
  256
370
   -1
100
AcDbLine
 10
8.890000000000001
 20
0
 11
16.51
 21
0
  0
LINE
  5
FA
100
AcDbEntity
  8
03_PI_OUTLINE
  6
ByLayer
 62
  256
370
   -1
100
AcDbLine
 10
5.08
 20
48.26
 11
20.32
 21
48.26
  0
LINE
  5
FB
100
AcDbEntity
  8
03_PI_OUTLINE
  6
ByLayer
 62
  256
370
   -1
100
AcDbLine
 10
5.08
 20
48.26
 11
5.08
 21
25.4
  0
LINE
  5
FC
100
AcDbEntity
  8
03_PI_OUTLINE
  6
ByLayer
 62
  256
370
   -1
100
AcDbLine
 10
5.08
 20
25.4
 11
20.32
 21
25.4
  0
LINE
  5
FD
100
AcDbEntity
  8
03_PI_OUTLINE
  6
ByLayer
 62
  256
370
   -1
100
AcDbLine
 10
20.32
 20
25.4
 11
20.32
 21
48.26
  0
LINE
  5
FE
100
AcDbEntity
  8
03_PI_OUTLINE
  6
ByLayer
 62
  256
370
   -1
100
AcDbLine
 10
8.890000000000001
 20
0
 11
8.890000000000001
 21
3.81
  0
LINE
  5
FF
100
AcDbEntity
  8
03_PI_OUTLINE
  6
ByLayer
 62
  256
370
   -1
100
AcDbLine
 10
8.890000000000001
 20
3.81
 11
16.51
 21
3.81
  0
LINE
  5
100
100
AcDbEntity
  8
03_PI_OUTLINE
  6
ByLayer
 62
  256
370
   -1
100
AcDbLine
 10
16.51
 20
3.81
 11
16.51
 21
0
  0
LINE
  5
101
100
AcDbEntity
  8
03_PI_OUTLINE
  6
ByLayer
 62
  256
370
   -1
100
AcDbLine
 10
7.62
 20
43.18
 11
7.62
 21
46.99
  0
LINE
  5
102
100
AcDbEntity
  8
03_PI_OUTLINE
  6
ByLayer
 62
  256
370
   -1
100
AcDbLine
 10
7.62
 20
46.99
 11
8.890000000000001
 21
46.99
  0
LINE
  5
103
100
AcDbEntity
  8
03_PI_OUTLINE
  6
ByLayer
 62
  256
370
   -1
100
AcDbLine
 10
8.890000000000001
 20
46.99
 11
8.890000000000001
 21
44.45
  0
LINE
  5
104
100
AcDbEntity
  8
03_PI_OUTLINE
  6
ByLayer
 62
  256
370
   -1
100
AcDbLine
 10
8.890000000000001
 20
44.45
 11
10.16
 21
44.45
  0
LINE
  5
105
100
AcDbEntity
  8
03_PI_OUTLINE
  6
ByLayer
 62
  256
370
   -1
100
AcDbLine
 10
10.16
 20
44.45
 11
10.16
 21
46.99
  0
LINE
  5
106
100
AcDbEntity
  8
03_PI_OUTLINE
  6
ByLayer
 62
  256
370
   -1
100
AcDbLine
 10
10.16
 20
46.99
 11
11.43
 21
46.99
  0
LINE
  5
107
100
AcDbEntity
  8
03_PI_OUTLINE
  6
ByLayer
 62
  256
370
   -1
100
AcDbLine
 10
11.43
 20
46.99
 11
11.43
 21
44.45
  0
LINE
  5
108
100
AcDbEntity
  8
03_PI_OUTLINE
  6
ByLayer
 62
  256
370
   -1
100
AcDbLine
 10
11.43
 20
44.45
 11
12.7
 21
44.45
  0
LINE
  5
109
100
AcDbEntity
  8
03_PI_OUTLINE
  6
ByLayer
 62
  256
370
   -1
100
AcDbLine
 10
12.7
 20
44.45
 11
12.7
 21
46.99
  0
LINE
  5
10A
100
AcDbEntity
  8
03_PI_OUTLINE
  6
ByLayer
 62
  256
370
   -1
100
AcDbLine
 10
12.7
 20
46.99
 11
13.97
 21
46.99
  0
LINE
  5
10B
100
AcDbEntity
  8
03_PI_OUTLINE
  6
ByLayer
 62
  256
370
   -1
100
AcDbLine
 10
13.97
 20
46.99
 11
13.97
 21
44.45
  0
LINE
  5
10C
100
AcDbEntity
  8
03_PI_OUTLINE
  6
ByLayer
 62
  256
370
   -1
100
AcDbLine
 10
13.97
 20
44.45
 11
15.24
 21
44.45
  0
LINE
  5
10D
100
AcDbEntity
  8
03_PI_OUTLINE
  6
ByLayer
 62
  256
370
   -1
100
AcDbLine
 10
15.24
 20
44.45
 11
15.24
 21
46.99
  0
LINE
  5
10E
100
AcDbEntity
  8
03_PI_OUTLINE
  6
ByLayer
 62
  256
370
   -1
100
AcDbLine
 10
15.24
 20
46.99
 11
17.78
 21
46.99
  0
LINE
  5
10F
100
AcDbEntity
  8
03_PI_OUTLINE
  6
ByLayer
 62
  256
370
   -1
100
AcDbLine
 10
5.08
 20
3.81
 11
7.62
 21
3.81
  0
LINE
  5
110
100
AcDbEntity
  8
03_PI_OUTLINE
  6
ByLayer
 62
  256
370
   -1
100
AcDbLine
 10
7.62
 20
3.81
 11
7.62
 21
1.27
  0
LINE
  5
111
100
AcDbEntity
  8
03_PI_OUTLINE
  6
ByLayer
 62
  256
370
   -1
100
AcDbLine
 10
7.62
 20
1.27
 11
5.08
 21
1.27
  0
LINE
  5
112
100
AcDbEntity
  8
03_PI_OUTLINE
  6
ByLayer
 62
  256
370
   -1
100
AcDbLine
 10
5.08
 20
1.27
 11
5.08
 21
3.81
  0
LINE
  5
113
100
AcDbEntity
  8
03_PI_OUTLINE
  6
ByLayer
 62
  256
370
   -1
100
AcDbLine
 10
17.78
 20
3.81
 11
17.78
 21
1.27
  0
LINE
  5
114
100
AcDbEntity
  8
03_PI_OUTLINE
  6
ByLayer
 62
  256
370
   -1
100
AcDbLine
 10
17.78
 20
1.27
 11
20.32
 21
1.27
  0
LINE
  5
115
100
AcDbEntity
  8
03_PI_OUTLINE
  6
ByLayer
 62
  256
370
   -1
100
AcDbLine
 10
20.32
 20
1.27
 11
20.32
 21
3.81
  0
LINE
  5
116
100
AcDbEntity
  8
03_PI_OUTLINE
  6
ByLayer
 62
  256
370
   -1
100
AcDbLine
 10
20.32
 20
3.81
 11
17.78
 21
3.81
  0
CIRCLE
  5
117
100
AcDbEntity
  8
01_LASER
  6
ByLayer
 62
  256
370
   -1
100
AcDbCircle
 10
2.54
 20
45.72
 40
1.6
  0
CIRCLE
  5
118
100
AcDbEntity
  8
01_LASER
  6
ByLayer
 62
  256
370
   -1
100
AcDbCircle
 10
22.86
 20
45.72
 40
1.6
  0
CIRCLE
  5
119
100
AcDbEntity
  8
01_LASER
  6
ByLayer
 62
  256
370
   -1
100
AcDbCircle
 10
22.86
 20
2.54
 40
1.6
  0
CIRCLE
  5
11A
100
AcDbEntity
  8
01_LASER
  6
ByLayer
 62
  256
370
   -1
100
AcDbCircle
 10
2.54
 20
2.54
 40
1.6
  0
ENDBLK
  5
B4
330
B2
100
AcDbEntity
  8
0
100
AcDbBlockEnd
  0
BLOCK
  5
B6
330
B5
100
AcDbEntity
  8
0
100
AcDbBlockBegin
  2
SQUAREP-1
 70
    0
 10
0
 20
0
  3
SQUAREP-1
  1

  0
LINE
  5
11B
100
AcDbEntity
  8
0
  6
ByLayer
 62
  256
370
   -1
100
AcDbLine
 10
-0.5
 20
0.5
 11
0.5
 21
0.5
  0
LINE
  5
11C
100
AcDbEntity
  8
0
  6
ByLayer
 62
  256
370
   -1
100
AcDbLine
 10
0.5
 20
0.5
 11
0.4999999999999999
 21
-0.5
  0
LINE
  5
11D
100
AcDbEntity
  8
0
  6
ByLayer
 62
  256
370
   -1
100
AcDbLine
 10
0.4999999999999999
 20
-0.5
 11
-0.5000000000000001
 21
-0.5
  0
LINE
  5
11E
100
AcDbEntity
  8
0
  6
ByLayer
 62
  256
370
   -1
100
AcDbLine
 10
-0.5000000000000001
 20
-0.5
 11
-0.5000000000000001
 21
0.5
  0
ENDBLK
  5
B7
330
B5
100
AcDbEntity
  8
0
100
AcDbBlockEnd
  0
BLOCK
  5
B9
330
B8
100
AcDbEntity
  8
0
100
AcDbBlockBegin
  2
SQUAREP-2
 70
    0
 10
0
 20
0
  3
SQUAREP-2
  1

  0
LINE
  5
11F
100
AcDbEntity
  8
0
  6
ByLayer
 62
  256
370
   -1
100
AcDbLine
 10
-0.5
 20
0.5
 11
0.5
 21
0.5
  0
LINE
  5
120
100
AcDbEntity
  8
0
  6
ByLayer
 62
  256
370
   -1
100
AcDbLine
 10
0.5
 20
0.5
 11
0.4999999999999999
 21
-0.5
  0
LINE
  5
121
100
AcDbEntity
  8
0
  6
ByLayer
 62
  256
370
   -1
100
AcDbLine
 10
0.4999999999999999
 20
-0.5
 11
-0.5000000000000001
 21
-0.5
  0
LINE
  5
122
100
AcDbEntity
  8
0
  6
ByLayer
 62
  256
370
   -1
100
AcDbLine
 10
-0.5000000000000001
 20
-0.5
 11
-0.5000000000000001
 21
0.5
  0
ENDBLK
  5
BA
330
B8
100
AcDbEntity
  8
0
100
AcDbBlockEnd
  0
BLOCK
  5
BC
330
BB
100
AcDbEntity
  8
0
100
AcDbBlockBegin
  2
ROUNDP-1
 70
    0
 10
0
 20
0
  3
ROUNDP-1
  1

  0
CIRCLE
  5
123
100
AcDbEntity
  8
0
  6
ByLayer
 62
  256
370
   -1
100
AcDbCircle
 10
0
 20
0
 40
0.5
  0
ENDBLK
  5
BD
330
BB
100
AcDbEntity
  8
0
100
AcDbBlockEnd
  0
BLOCK
  5
BF
330
BE
100
AcDbEntity
  8
0
100
AcDbBlockBegin
  2
SQUAREP-3
 70
    0
 10
0
 20
0
  3
SQUAREP-3
  1

  0
LINE
  5
124
100
AcDbEntity
  8
0
  6
ByLayer
 62
  256
370
   -1
100
AcDbLine
 10
-0.5
 20
0.5
 11
0.5
 21
0.5
  0
LINE
  5
125
100
AcDbEntity
  8
0
  6
ByLayer
 62
  256
370
   -1
100
AcDbLine
 10
0.5
 20
0.5
 11
0.4999999999999999
 21
-0.5
  0
LINE
  5
126
100
AcDbEntity
  8
0
  6
ByLayer
 62
  256
370
   -1
100
AcDbLine
 10
0.4999999999999999
 20
-0.5
 11
-0.5000000000000001
 21
-0.5
  0
LINE
  5
127
100
AcDbEntity
  8
0
  6
ByLayer
 62
  256
370
   -1
100
AcDbLine
 10
-0.5000000000000001
 20
-0.5
 11
-0.5000000000000001
 21
0.5
  0
ENDBLK
  5
C0
330
BE
100
AcDbEntity
  8
0
100
AcDbBlockEnd
  0
BLOCK
  5
C2
330
C1
100
AcDbEntity
  8
0
100
AcDbBlockBegin
  2
ROUNDP-2
 70
    0
 10
0
 20
0
  3
ROUNDP-2
  1

  0
CIRCLE
  5
128
100
AcDbEntity
  8
0
  6
ByLayer
 62
  256
370
   -1
100
AcDbCircle
 10
0
 20
0
 40
0.5
  0
ENDBLK
  5
C3
330
C1
100
AcDbEntity
  8
0
100
AcDbBlockEnd
  0
ENDSEC
  0
SECTION
  2
ENTITIES
  0
CIRCLE
  5
129
100
AcDbEntity
  8
03_PI_OUTLINE
  6
ByLayer
 62
  256
370
   -1
100
AcDbCircle
 10
3.5
 20
52.5
 40
1.35
  0
CIRCLE
  5
12A
100
AcDbEntity
  8
03_PI_OUTLINE
  6
ByLayer
 62
  256
370
   -1
100
AcDbCircle
 10
3.5
 20
52.5
 40
3
  0
CIRCLE
  5
12B
100
AcDbEntity
  8
03_PI_OUTLINE
  6
ByLayer
 62
  256
370
   -1
100
AcDbCircle
 10
3.5
 20
3.499999999999993
 40
1.35
  0
CIRCLE
  5
12C
100
AcDbEntity
  8
03_PI_OUTLINE
  6
ByLayer
 62
  256
370
   -1
100
AcDbCircle
 10
3.5
 20
3.499999999999993
 40
3
  0
CIRCLE
  5
12D
100
AcDbEntity
  8
03_PI_OUTLINE
  6
ByLayer
 62
  256
370
   -1
100
AcDbCircle
 10
61.5
 20
52.49999999999999
 40
1.35
  0
CIRCLE
  5
12E
100
AcDbEntity
  8
03_PI_OUTLINE
  6
ByLayer
 62
  256
370
   -1
100
AcDbCircle
 10
61.5
 20
52.49999999999999
 40
3
  0
CIRCLE
  5
12F
100
AcDbEntity
  8
03_PI_OUTLINE
  6
ByLayer
 62
  256
370
   -1
100
AcDbCircle
 10
61.5
 20
3.499999999999993
 40
1.35
  0
CIRCLE
  5
130
100
AcDbEntity
  8
03_PI_OUTLINE
  6
ByLayer
 62
  256
370
   -1
100
AcDbCircle
 10
61.5
 20
3.499999999999993
 40
3
  0
LINE
  5
131
100
AcDbEntity
  8
03_PI_OUTLINE
  6
ByLayer
 62
  256
370
   -1
100
AcDbLine
 10
88
 20
33.57
 11
88
 21
20.43
  0
LINE
  5
132
100
AcDbEntity
  8
03_PI_OUTLINE
  6
ByLayer
 62
  256
370
   -1
100
AcDbLine
 10
88
 20
33.57
 11
88
 21
34.25
  0
LINE
  5
133
100
AcDbEntity
  8
03_PI_OUTLINE
  6
ByLayer
 62
  256
370
   -1
100
AcDbLine
 10
88
 20
34.25
 11
87.7
 21
34.25
  0
LINE
  5
134
100
AcDbEntity
  8
03_PI_OUTLINE
  6
ByLayer
 62
  256
370
   -1
100
AcDbLine
 10
87.7
 20
34.25
 11
87.7
 21
33.57
  0
LINE
  5
135
100
AcDbEntity
  8
03_PI_OUTLINE
  6
ByLayer
 62
  256
370
   -1
100
AcDbLine
 10
88
 20
37.995
 11
88
 21
53.505
  0
LINE
  5
136
100
AcDbEntity
  8
03_PI_OUTLINE
  6
ByLayer
 62
  256
370
   -1
100
AcDbLine
 10
88
 20
15.57
 11
88
 21
1.65
  0
LINE
  5
137
100
AcDbEntity
  8
03_PI_OUTLINE
  6
ByLayer
 62
  256
370
   -1
100
AcDbLine
 10
88
 20
1.65
 11
87.5
 21
1.65
  0
LINE
  5
138
100
AcDbEntity
  8
03_PI_OUTLINE
  6
ByLayer
 62
  256
370
   -1
100
AcDbLine
 10
87.5
 20
1.65
 11
87.5
 21
2.43
  0
LINE
  5
139
100
AcDbEntity
  8
03_PI_OUTLINE
  6
ByLayer
 62
  256
370
   -1
100
AcDbLine
 10
88
 20
53.505
 11
85.00000000000001
 21
53.5
  0
LINE
  5
13A
100
AcDbEntity
  8
03_PI_OUTLINE
  6
ByLayer
 62
  256
370
   -1
100
AcDbLine
 10
85.00000000000001
 20
53.5
 11
85
 21
53
  0
LINE
  5
13B
100
AcDbEntity
  8
03_PI_OUTLINE
  6
ByLayer
 62
  256
370
   -1
100
AcDbLine
 10
88
 20
37.995
 11
85
 21
38
  0
LINE
  5
13C
100
AcDbEntity
  8
03_PI_OUTLINE
  6
ByLayer
 62
  256
370
   -1
100
AcDbLine
 10
87.7
 20
33.57
 11
85
 21
33.57
  0
LINE
  5
13D
100
AcDbEntity
  8
03_PI_OUTLINE
  6
ByLayer
 62
  256
370
   -1
100
AcDbLine
 10
87.7
 20
20.43
 11
84.99999999999999
 21
20.43
  0
LINE
  5
13E
100
AcDbEntity
  8
03_PI_OUTLINE
  6
ByLayer
 62
  256
370
   -1
100
AcDbLine
 10
87.5
 20
15.57
 11
85
 21
15.57
  0
LINE
  5
13F
100
AcDbEntity
  8
03_PI_OUTLINE
  6
ByLayer
 62
  256
370
   -1
100
AcDbLine
 10
87.5
 20
2.43
 11
85
 21
2.43
  0
LINE
  5
140
100
AcDbEntity
  8
03_PI_OUTLINE
  6
ByLayer
 62
  256
370
   -1
100
AcDbLine
 10
85
 20
2.43
 11
85
 21
3
  0
LINE
  5
141
100
AcDbEntity
  8
03_PMS_OUTLINE
  6
ByLayer
 62
  256
370
   -1
100
AcDbLine
 10
27
 20
8
 11
27
 21
44.69999999999999
  0
LINE
  5
142
100
AcDbEntity
  8
03_PMS_OUTLINE
  6
ByLayer
 62
  256
370
   -1
100
AcDbLine
 10
27
 20
8
 11
74.7
 21
7.999999999999997
  0
LINE
  5
143
100
AcDbEntity
  8
03_PMS_OUTLINE
  6
ByLayer
 62
  256
370
   -1
100
AcDbLine
 10
74.7
 20
7.999999999999997
 11
74.7
 21
44.69999999999999
  0
LINE
  5
144
100
AcDbEntity
  8
03_PMS_OUTLINE
  6
ByLayer
 62
  256
370
   -1
100
AcDbLine
 10
74.7
 20
44.69999999999999
 11
27
 21
44.69999999999999
  0
LINE
  5
145
100
AcDbEntity
  8
03_PMS_OUTLINE
  6
ByLayer
 62
  256
370
   -1
100
AcDbLine
 10
29.85000000000001
 20
41.84999999999999
 11
35.85000000000001
 21
41.84999999999999
  0
LINE
  5
146
100
AcDbEntity
  8
03_PMS_OUTLINE
  6
ByLayer
 62
  256
370
   -1
100
AcDbLine
 10
35.85000000000001
 20
41.84999999999999
 11
35.85000000000001
 21
31.84999999999999
  0
LINE
  5
147
100
AcDbEntity
  8
03_PMS_OUTLINE
  6
ByLayer
 62
  256
370
   -1
100
AcDbLine
 10
35.85000000000001
 20
31.84999999999999
 11
29.85000000000001
 21
31.84999999999999
  0
LINE
  5
148
100
AcDbEntity
  8
03_PMS_OUTLINE
  6
ByLayer
 62
  256
370
   -1
100
AcDbLine
 10
29.85000000000001
 20
31.84999999999999
 11
29.85000000000001
 21
41.84999999999999
  0
POINT
  5
149
100
AcDbEntity
  8
03_PMS_OUTLINE
  6
ByLayer
 62
  256
370
   -1
100
AcDbPoint
 10
32.85000000000001
 20
36.84999999999999
  0
LINE
  5
14A
100
AcDbEntity
  8
03_PMS_OUTLINE
  6
ByLayer
 62
  256
370
   -1
100
AcDbLine
 10
34.39999999999999
 20
40.22499999999999
 11
34.39999999999999
 21
33.47499999999999
  0
LINE
  5
14B
100
AcDbEntity
  8
03_PMS_OUTLINE
  6
ByLayer
 62
  256
370
   -1
100
AcDbLine
 10
34.39999999999999
 20
33.47499999999999
 11
31.3
 21
33.47499999999999
  0
LINE
  5
14C
100
AcDbEntity
  8
03_PMS_OUTLINE
  6
ByLayer
 62
  256
370
   -1
100
AcDbLine
 10
31.3
 20
33.47499999999999
 11
31.3
 21
40.22499999999999
  0
LINE
  5
14D
100
AcDbEntity
  8
03_PMS_OUTLINE
  6
ByLayer
 62
  256
370
   -1
100
AcDbLine
 10
31.3
 20
40.22499999999999
 11
34.39999999999999
 21
40.22499999999999
  0
LINE
  5
14E
100
AcDbEntity
  8
03_PMS_OUTLINE
  6
ByLayer
 62
  256
370
   -1
100
AcDbLine
 10
34.64999999999999
 20
40.47499999999999
 11
34.64999999999999
 21
33.22499999999999
  0
LINE
  5
14F
100
AcDbEntity
  8
03_PMS_OUTLINE
  6
ByLayer
 62
  256
370
   -1
100
AcDbLine
 10
34.64999999999999
 20
33.22499999999999
 11
31.05
 21
33.22499999999999
  0
LINE
  5
150
100
AcDbEntity
  8
03_PMS_OUTLINE
  6
ByLayer
 62
  256
370
   -1
100
AcDbLine
 10
31.05
 20
33.22499999999999
 11
31.05
 21
40.47499999999999
  0
LINE
  5
151
100
AcDbEntity
  8
03_PMS_OUTLINE
  6
ByLayer
 62
  256
370
   -1
100
AcDbLine
 10
31.05
 20
40.47499999999999
 11
34.64999999999999
 21
40.47499999999999
  0
LINE
  5
152
100
AcDbEntity
  8
03_PMS_OUTLINE
  6
ByLayer
 62
  256
370
   -1
100
AcDbLine
 10
31.45
 20
44.69999999999999
 11
31.45
 21
43.69999999999999
  0
LINE
  5
153
100
AcDbEntity
  8
03_PMS_OUTLINE
  6
ByLayer
 62
  256
370
   -1
100
AcDbLine
 10
41.25000000000001
 20
44.69999999999999
 11
41.25000000000001
 21
43.69999999999999
  0
LINE
  5
154
100
AcDbEntity
  8
03_PMS_OUTLINE
  6
ByLayer
 62
  256
370
   -1
100
AcDbLine
 10
70.25000000000001
 20
44.69999999999999
 11
70.25000000000001
 21
43.69999999999999
  0
LINE
  5
155
100
AcDbEntity
  8
03_PMS_OUTLINE
  6
ByLayer
 62
  256
370
   -1
100
AcDbLine
 10
59.25000000000001
 20
43.69999999999999
 11
59.25000000000001
 21
44.69999999999999
  0
LINE
  5
156
100
AcDbEntity
  8
03_BME_OUTLINE
  6
ByLayer
 62
  256
370
   -1
100
AcDbLine
 10
11.84
 20
4
 11
22
 21
4
  0
LINE
  5
157
100
AcDbEntity
  8
03_BME_OUTLINE
  6
ByLayer
 62
  256
370
   -1
100
AcDbLine
 10
22
 20
4
 11
22
 21
16.7
  0
LINE
  5
158
100
AcDbEntity
  8
03_BME_OUTLINE
  6
ByLayer
 62
  256
370
   -1
100
AcDbLine
 10
22
 20
16.7
 11
11.84
 21
16.7
  0
LINE
  5
159
100
AcDbEntity
  8
03_BME_OUTLINE
  6
ByLayer
 62
  256
370
   -1
100
AcDbLine
 10
11.84
 20
16.7
 11
11.84
 21
4
  0
CIRCLE
  5
15A
100
AcDbEntity
  8
03_BME_OUTLINE
  6
ByLayer
 62
  256
370
   -1
100
AcDbCircle
 10
14.38
 20
14.16
 40
1.5
  0
LINE
  5
15B
100
AcDbEntity
  8
03_PI_OUTLINE
  6
ByLayer
 62
  256
370
   -1
100
AcDbLine
 10
3
 20
0
 11
82
 21
0
  0
ARC
  5
15C
100
AcDbEntity
  8
03_PI_OUTLINE
  6
ByLayer
 62
  256
370
   -1
100
AcDbCircle
 10
82.00000224122554
 20
2.999997758774453
 40
2.99999775877529
100
AcDbArc
 50
269.9999571957131
 51
4.280428690330815e-005
  0
LINE
  5
15D
100
AcDbEntity
  8
03_PI_OUTLINE
  6
ByLayer
 62
  256
370
   -1
100
AcDbLine
 10
85
 20
3
 11
85
 21
53
  0
ARC
  5
15E
100
AcDbEntity
  8
03_PI_OUTLINE
  6
ByLayer
 62
  256
370
   -1
100
AcDbCircle
 10
82.00000224122554
 20
53.00000224122554
 40
2.999997758775292
100
AcDbArc
 50
359.9999571957131
 51
90.00004280428686
  0
LINE
  5
15F
100
AcDbEntity
  8
03_PI_OUTLINE
  6
ByLayer
 62
  256
370
   -1
100
AcDbLine
 10
82
 20
56
 11
3
 21
56
  0
ARC
  5
160
100
AcDbEntity
  8
03_PI_OUTLINE
  6
ByLayer
 62
  256
370
   -1
100
AcDbCircle
 10
2.999997758774444
 20
53.00000224122555
 40
2.999997758775285
100
AcDbArc
 50
89.99995719571292
 51
180.000042804287
  0
LINE
  5
161
100
AcDbEntity
  8
03_PI_OUTLINE
  6
ByLayer
 62
  256
370
   -1
100
AcDbLine
 10
-3.996802888650564e-015
 20
53
 11
8.881784197001252e-016
 21
3
  0
ARC
  5
162
100
AcDbEntity
  8
03_PI_OUTLINE
  6
ByLayer
 62
  256
370
   -1
100
AcDbCircle
 10
2.99999775877445
 20
2.999997758774449
 40
2.999997758775286
100
AcDbArc
 50
179.999957195713
 51
270.000042804287
  0
LINE
  5
163
100
AcDbEntity
  8
03_PI_OUTLINE
  6
ByLayer
 62
  256
370
   -1
100
AcDbLine
 10
88
 20
20.43
 11
88
 21
19.75
  0
LINE
  5
164
100
AcDbEntity
  8
03_PI_OUTLINE
  6
ByLayer
 62
  256
370
   -1
100
AcDbLine
 10
88
 20
19.75
 11
87.7
 21
19.75
  0
LINE
  5
165
100
AcDbEntity
  8
03_PI_OUTLINE
  6
ByLayer
 62
  256
370
   -1
100
AcDbLine
 10
87.7
 20
19.75
 11
87.7
 21
20.43
  0
LINE
  5
166
100
AcDbEntity
  8
03_PI_OUTLINE
  6
ByLayer
 62
  256
370
   -1
100
AcDbLine
 10
5.45
 20
39.2
 11
2.6
 21
39.2
  0
LINE
  5
167
100
AcDbEntity
  8
03_PI_OUTLINE
  6
ByLayer
 62
  256
370
   -1
100
AcDbLine
 10
2.6
 20
39.2
 11
2.6
 21
35.8
  0
LINE
  5
168
100
AcDbEntity
  8
03_PI_OUTLINE
  6
ByLayer
 62
  256
370
   -1
100
AcDbLine
 10
2.6
 20
35.8
 11
1.5
 21
34.7
  0
LINE
  5
169
100
AcDbEntity
  8
03_PI_OUTLINE
  6
ByLayer
 62
  256
370
   -1
100
AcDbLine
 10
1.5
 20
34.7
 11
1.5
 21
21.3
  0
LINE
  5
16A
100
AcDbEntity
  8
03_PI_OUTLINE
  6
ByLayer
 62
  256
370
   -1
100
AcDbLine
 10
1.5
 20
21.3
 11
2.65
 21
20.15
  0
LINE
  5
16B
100
AcDbEntity
  8
03_PI_OUTLINE
  6
ByLayer
 62
  256
370
   -1
100
AcDbLine
 10
2.65
 20
20.15
 11
2.65
 21
16.8
  0
LINE
  5
16C
100
AcDbEntity
  8
03_PI_OUTLINE
  6
ByLayer
 62
  256
370
   -1
100
AcDbLine
 10
2.65
 20
16.8
 11
5.45
 21
16.8
  0
LINE
  5
16D
100
AcDbEntity
  8
03_PI_OUTLINE
  6
ByLayer
 62
  256
370
   -1
100
AcDbLine
 10
5.45
 20
16.8
 11
5.45
 21
39.2
  0
LINE
  5
16E
100
AcDbEntity
  8
03_PI_OUTLINE
  6
ByLayer
 62
  256
370
   -1
100
AcDbLine
 10
5.45
 20
36
 11
4.55
 21
36
  0
LINE
  5
16F
100
AcDbEntity
  8
03_PI_OUTLINE
  6
ByLayer
 62
  256
370
   -1
100
AcDbLine
 10
4.55
 20
36
 11
4.55
 21
20
  0
LINE
  5
170
100
AcDbEntity
  8
03_PI_OUTLINE
  6
ByLayer
 62
  256
370
   -1
100
AcDbLine
 10
4.55
 20
20
 11
5.45
 21
20
  0
LINE
  5
171
100
AcDbEntity
  8
03_PI_OUTLINE
  6
ByLayer
 62
  256
370
   -1
100
AcDbLine
 10
88
 20
15.57
 11
88
 21
16.35
  0
LINE
  5
172
100
AcDbEntity
  8
03_PI_OUTLINE
  6
ByLayer
 62
  256
370
   -1
100
AcDbLine
 10
88
 20
16.35
 11
87.5
 21
16.35
  0
LINE
  5
173
100
AcDbEntity
  8
03_PI_OUTLINE
  6
ByLayer
 62
  256
370
   -1
100
AcDbLine
 10
87.5
 20
16.35
 11
87.5
 21
15.57
  0
LINE
  5
174
100
AcDbEntity
  8
03_PI_OUTLINE
  6
ByLayer
 62
  256
370
   -1
100
AcDbLine
 10
7.1
 20
50
 11
57.9
 21
50
  0
LINE
  5
175
100
AcDbEntity
  8
03_PI_OUTLINE
  6
ByLayer
 62
  256
370
   -1
100
AcDbLine
 10
57.9
 20
50
 11
57.9
 21
55
  0
LINE
  5
176
100
AcDbEntity
  8
03_PI_OUTLINE
  6
ByLayer
 62
  256
370
   -1
100
AcDbLine
 10
57.9
 20
55
 11
7.1
 21
55
  0
LINE
  5
177
100
AcDbEntity
  8
03_PI_OUTLINE
  6
ByLayer
 62
  256
370
   -1
100
AcDbLine
 10
7.1
 20
55
 11
7.1
 21
50
  0
LINE
  5
178
100
AcDbEntity
  8
03_PMS_OUTLINE
  6
ByLayer
 62
  256
370
   -1
100
AcDbLine
 10
32.72300000000001
 20
39.89799999999999
 11
32.72300000000001
 21
38.88199999999999
  0
LINE
  5
179
100
AcDbEntity
  8
03_PMS_OUTLINE
  6
ByLayer
 62
  256
370
   -1
100
AcDbLine
 10
32.72300000000001
 20
38.88199999999999
 11
31.707
 21
38.88199999999999
  0
LINE
  5
17A
100
AcDbEntity
  8
03_PMS_OUTLINE
  6
ByLayer
 62
  256
370
   -1
100
AcDbLine
 10
31.707
 20
38.88199999999999
 11
31.707
 21
39.898
  0
LINE
  5
17B
100
AcDbEntity
  8
03_PMS_OUTLINE
  6
ByLayer
 62
  256
370
   -1
100
AcDbLine
 10
31.707
 20
39.898
 11
32.72300000000001
 21
39.89799999999999
  0
LINE
  5
17C
100
AcDbEntity
  8
03_PMS_OUTLINE
  6
ByLayer
 62
  256
370
   -1
100
AcDbLine
 10
32.72300000000001
 20
39.89799999999999
 11
32.72300000000001
 21
38.88199999999999
  0
LINE
  5
17D
100
AcDbEntity
  8
03_PMS_OUTLINE
  6
ByLayer
 62
  256
370
   -1
100
AcDbLine
 10
32.72300000000001
 20
38.88199999999999
 11
31.707
 21
38.88199999999999
  0
LINE
  5
17E
100
AcDbEntity
  8
03_PMS_OUTLINE
  6
ByLayer
 62
  256
370
   -1
100
AcDbLine
 10
31.707
 20
38.88199999999999
 11
31.707
 21
39.898
  0
LINE
  5
17F
100
AcDbEntity
  8
03_PMS_OUTLINE
  6
ByLayer
 62
  256
370
   -1
100
AcDbLine
 10
31.707
 20
39.898
 11
32.72300000000001
 21
39.89799999999999
  0
CIRCLE
  5
180
100
AcDbEntity
  8
03_PMS_OUTLINE
  6
ByLayer
 62
  256
370
   -1
100
AcDbCircle
 10
33.485
 20
39.38999999999999
 40
0.508
  0
CIRCLE
  5
181
100
AcDbEntity
  8
03_PMS_OUTLINE
  6
ByLayer
 62
  256
370
   -1
100
AcDbCircle
 10
33.485
 20
39.38999999999999
 40
0.508
  0
CIRCLE
  5
182
100
AcDbEntity
  8
03_PMS_OUTLINE
  6
ByLayer
 62
  256
370
   -1
100
AcDbCircle
 10
32.215
 20
38.12
 40
0.508
  0
CIRCLE
  5
183
100
AcDbEntity
  8
03_PMS_OUTLINE
  6
ByLayer
 62
  256
370
   -1
100
AcDbCircle
 10
32.215
 20
38.12
 40
0.508
  0
CIRCLE
  5
184
100
AcDbEntity
  8
03_PMS_OUTLINE
  6
ByLayer
 62
  256
370
   -1
100
AcDbCircle
 10
33.485
 20
38.12
 40
0.508
  0
CIRCLE
  5
185
100
AcDbEntity
  8
03_PMS_OUTLINE
  6
ByLayer
 62
  256
370
   -1
100
AcDbCircle
 10
33.485
 20
38.12
 40
0.508
  0
CIRCLE
  5
186
100
AcDbEntity
  8
03_PMS_OUTLINE
  6
ByLayer
 62
  256
370
   -1
100
AcDbCircle
 10
32.215
 20
36.84999999999999
 40
0.508
  0
CIRCLE
  5
187
100
AcDbEntity
  8
03_PMS_OUTLINE
  6
ByLayer
 62
  256
370
   -1
100
AcDbCircle
 10
32.215
 20
36.84999999999999
 40
0.508
  0
CIRCLE
  5
188
100
AcDbEntity
  8
03_PMS_OUTLINE
  6
ByLayer
 62
  256
370
   -1
100
AcDbCircle
 10
33.485
 20
36.84999999999999
 40
0.508
  0
CIRCLE
  5
189
100
AcDbEntity
  8
03_PMS_OUTLINE
  6
ByLayer
 62
  256
370
   -1
100
AcDbCircle
 10
33.485
 20
36.84999999999999
 40
0.508
  0
CIRCLE
  5
18A
100
AcDbEntity
  8
03_PMS_OUTLINE
  6
ByLayer
 62
  256
370
   -1
100
AcDbCircle
 10
32.215
 20
35.58000000000001
 40
0.508
  0
CIRCLE
  5
18B
100
AcDbEntity
  8
03_PMS_OUTLINE
  6
ByLayer
 62
  256
370
   -1
100
AcDbCircle
 10
32.215
 20
35.58000000000001
 40
0.508
  0
CIRCLE
  5
18C
100
AcDbEntity
  8
03_PMS_OUTLINE
  6
ByLayer
 62
  256
370
   -1
100
AcDbCircle
 10
33.485
 20
35.58000000000001
 40
0.508
  0
CIRCLE
  5
18D
100
AcDbEntity
  8
03_PMS_OUTLINE
  6
ByLayer
 62
  256
370
   -1
100
AcDbCircle
 10
33.485
 20
35.58000000000001
 40
0.508
  0
CIRCLE
  5
18E
100
AcDbEntity
  8
03_PMS_OUTLINE
  6
ByLayer
 62
  256
370
   -1
100
AcDbCircle
 10
32.215
 20
34.31
 40
0.508
  0
CIRCLE
  5
18F
100
AcDbEntity
  8
03_PMS_OUTLINE
  6
ByLayer
 62
  256
370
   -1
100
AcDbCircle
 10
32.215
 20
34.31
 40
0.508
  0
CIRCLE
  5
190
100
AcDbEntity
  8
03_PMS_OUTLINE
  6
ByLayer
 62
  256
370
   -1
100
AcDbCircle
 10
33.485
 20
34.31
 40
0.508
  0
CIRCLE
  5
191
100
AcDbEntity
  8
03_PMS_OUTLINE
  6
ByLayer
 62
  256
370
   -1
100
AcDbCircle
 10
33.485
 20
34.31
 40
0.508
  0
CIRCLE
  5
192
100
AcDbEntity
  8
03_BME_OUTLINE
  6
ByLayer
 62
  256
370
   -1
100
AcDbCircle
 10
15.65000000000001
 20
5.269999999999996
 40
0.9651999999999999
  0
CIRCLE
  5
193
100
AcDbEntity
  8
03_BME_OUTLINE
  6
ByLayer
 62
  256
370
   -1
100
AcDbCircle
 10
15.65000000000001
 20
5.269999999999996
 40
0.9651999999999999
  0
CIRCLE
  5
194
100
AcDbEntity
  8
03_BME_OUTLINE
  6
ByLayer
 62
  256
370
   -1
100
AcDbCircle
 10
18.19
 20
5.269999999999996
 40
0.9651999999999999
  0
CIRCLE
  5
195
100
AcDbEntity
  8
03_BME_OUTLINE
  6
ByLayer
 62
  256
370
   -1
100
AcDbCircle
 10
18.19
 20
5.269999999999996
 40
0.9651999999999999
  0
CIRCLE
  5
196
100
AcDbEntity
  8
03_BME_OUTLINE
  6
ByLayer
 62
  256
370
   -1
100
AcDbCircle
 10
20.72999999999999
 20
5.269999999999996
 40
0.9651999999999999
  0
CIRCLE
  5
197
100
AcDbEntity
  8
03_BME_OUTLINE
  6
ByLayer
 62
  256
370
   -1
100
AcDbCircle
 10
20.72999999999999
 20
5.269999999999996
 40
0.9651999999999999
  0
CIRCLE
  5
198
100
AcDbEntity
  8
03_BME_OUTLINE
  6
ByLayer
 62
  256
370
   -1
100
AcDbCircle
 10
13.11000000000001
 20
5.269999999999996
 40
0.9651999999999999
  0
CIRCLE
  5
199
100
AcDbEntity
  8
03_BME_OUTLINE
  6
ByLayer
 62
  256
370
   -1
100
AcDbCircle
 10
13.11000000000001
 20
5.269999999999996
 40
0.9651999999999999
  0
CIRCLE
  5
19A
100
AcDbEntity
  8
03_BME_OUTLINE
  6
ByLayer
 62
  256
370
   -1
100
AcDbCircle
 10
23.27000000000001
 20
5.269999999999996
 40
0.9651999999999999
  0
CIRCLE
  5
19B
100
AcDbEntity
  8
03_BME_OUTLINE
  6
ByLayer
 62
  256
370
   -1
100
AcDbCircle
 10
10.56999999999999
 20
5.269999999999996
 40
0.9651999999999999
  0
LINE
  5
19C
100
AcDbEntity
  8
02_MARKING
  6
ByLayer
 62
  256
370
   -1
100
AcDbLine
 10
27
 20
8
 11
27
 21
44.69999999999999
  0
LINE
  5
19D
100
AcDbEntity
  8
02_MARKING
  6
ByLayer
 62
  256
370
   -1
100
AcDbLine
 10
27
 20
8
 11
74.7
 21
7.999999999999997
  0
LINE
  5
19E
100
AcDbEntity
  8
02_MARKING
  6
ByLayer
 62
  256
370
   -1
100
AcDbLine
 10
74.7
 20
7.999999999999997
 11
74.7
 21
44.69999999999999
  0
LINE
  5
19F
100
AcDbEntity
  8
02_MARKING
  6
ByLayer
 62
  256
370
   -1
100
AcDbLine
 10
74.7
 20
44.69999999999999
 11
27
 21
44.69999999999999
  0
LINE
  5
1A0
100
AcDbEntity
  8
02_MARKING
  6
ByLayer
 62
  256
370
   -1
100
AcDbLine
 10
29.85000000000001
 20
41.84999999999999
 11
35.85000000000001
 21
41.84999999999999
  0
LINE
  5
1A1
100
AcDbEntity
  8
02_MARKING
  6
ByLayer
 62
  256
370
   -1
100
AcDbLine
 10
35.85000000000001
 20
41.84999999999999
 11
35.85000000000001
 21
31.84999999999999
  0
LINE
  5
1A2
100
AcDbEntity
  8
02_MARKING
  6
ByLayer
 62
  256
370
   -1
100
AcDbLine
 10
35.85000000000001
 20
31.84999999999999
 11
29.85000000000001
 21
31.84999999999999
  0
LINE
  5
1A3
100
AcDbEntity
  8
02_MARKING
  6
ByLayer
 62
  256
370
   -1
100
AcDbLine
 10
29.85000000000001
 20
31.84999999999999
 11
29.85000000000001
 21
41.84999999999999
  0
LINE
  5
1A4
100
AcDbEntity
  8
02_MARKING
  6
ByLayer
 62
  256
370
   -1
100
AcDbLine
 10
31.45
 20
44.69999999999999
 11
31.45
 21
43.69999999999999
  0
LINE
  5
1A5
100
AcDbEntity
  8
02_MARKING
  6
ByLayer
 62
  256
370
   -1
100
AcDbLine
 10
41.25000000000001
 20
44.69999999999999
 11
41.25000000000001
 21
43.69999999999999
  0
LINE
  5
1A6
100
AcDbEntity
  8
02_MARKING
  6
ByLayer
 62
  256
370
   -1
100
AcDbLine
 10
70.25000000000001
 20
44.69999999999999
 11
70.25000000000001
 21
43.69999999999999
  0
LINE
  5
1A7
100
AcDbEntity
  8
02_MARKING
  6
ByLayer
 62
  256
370
   -1
100
AcDbLine
 10
59.25000000000001
 20
43.69999999999999
 11
59.25000000000001
 21
44.69999999999999
  0
LINE
  5
1A8
100
AcDbEntity
  8
02_MARKING
  6
ByLayer
 62
  256
370
   -1
100
AcDbLine
 10
11.84
 20
7
 11
11.84
 21
16.7
  0
LINE
  5
1A9
100
AcDbEntity
  8
02_MARKING
  6
ByLayer
 62
  256
370
   -1
100
AcDbLine
 10
11.84
 20
16.7
 11
22
 21
16.7
  0
LINE
  5
1AA
100
AcDbEntity
  8
02_MARKING
  6
ByLayer
 62
  256
370
   -1
100
AcDbLine
 10
22
 20
16.7
 11
22
 21
7
  0
LINE
  5
1AB
100
AcDbEntity
  8
02_MARKING
  6
ByLayer
 62
  256
370
   -1
100
AcDbLine
 10
65.16666666666669
 20
31.4861
 11
65.16666666666669
 21
32.93053333333334
  0
LINE
  5
1AC
100
AcDbEntity
  8
02_MARKING
  6
ByLayer
 62
  256
370
   -1
100
AcDbLine
 10
66.00000000000001
 20
31.20833333333334
 11
63.00000000000001
 21
32.20833333333334
  0
LINE
  5
1AD
100
AcDbEntity
  8
02_MARKING
  6
ByLayer
 62
  256
370
   -1
100
AcDbLine
 10
63.00000000000001
 20
32.20833333333334
 11
66.00000000000001
 21
33.20833333333334
  0
LINE
  5
1AE
100
AcDbEntity
  8
02_MARKING
  6
ByLayer
 62
  256
370
   -1
100
AcDbLine
 10
66.00000000000001
 20
34.20833333333334
 11
63.00000000000001
 21
34.20833333333334
  0
LINE
  5
1AF
100
AcDbEntity
  8
02_MARKING
  6
ByLayer
 62
  256
370
   -1
100
AcDbLine
 10
66.00000000000001
 20
35.20833333333334
 11
63.00000000000001
 21
35.20833333333334
  0
LINE
  5
1B0
100
AcDbEntity
  8
02_MARKING
  6
ByLayer
 62
  256
370
   -1
100
AcDbLine
 10
63.00000000000001
 20
35.20833333333334
 11
63.00000000000001
 21
36.04166666666666
  0
ARC
  5
1B1
100
AcDbEntity
  8
02_MARKING
  6
ByLayer
 62
  256
370
   -1
100
AcDbCircle
 10
63.83333333333335
 20
36.04166666666666
 40
0.8333333333333333
100
AcDbArc
 50
360
 51
180
  0
LINE
  5
1B2
100
AcDbEntity
  8
02_MARKING
  6
ByLayer
 62
  256
370
   -1
100
AcDbLine
 10
64.66666666666669
 20
36.04166666666666
 11
64.66666666666669
 21
35.20833333333334
  0
LINE
  5
1B3
100
AcDbEntity
  8
02_MARKING
  6
ByLayer
 62
  256
370
   -1
100
AcDbLine
 10
66.00000000000001
 20
36.87500000000001
 11
64.65124666666668
 21
36.20123666666667
  0
LINE
  5
1B4
100
AcDbEntity
  8
02_MARKING
  6
ByLayer
 62
  256
370
   -1
100
AcDbLine
 10
66.00000000000001
 20
40.125
 11
63.00000000000001
 21
40.125
  0
LINE
  5
1B5
100
AcDbEntity
  8
02_MARKING
  6
ByLayer
 62
  256
370
   -1
100
AcDbLine
 10
66.00000000000001
 20
41.125
 11
63.00000000000001
 21
41.125
  0
LINE
  5
1B6
100
AcDbEntity
  8
02_MARKING
  6
ByLayer
 62
  256
370
   -1
100
AcDbLine
 10
63.00000000000001
 20
41.125
 11
66.00000000000001
 21
42.79166666666667
  0
LINE
  5
1B7
100
AcDbEntity
  8
02_MARKING
  6
ByLayer
 62
  256
370
   -1
100
AcDbLine
 10
66.00000000000001
 20
42.79166666666667
 11
63.00000000000001
 21
42.79166666666667
  0
LINE
  5
1B8
100
AcDbEntity
  8
02_MARKING
  6
ByLayer
 62
  256
370
   -1
100
AcDbLine
 10
40.16666666666668
 20
27.31943333333333
 11
40.16666666666668
 21
28.76386666666667
  0
LINE
  5
1B9
100
AcDbEntity
  8
02_MARKING
  6
ByLayer
 62
  256
370
   -1
100
AcDbLine
 10
41.00000000000001
 20
27.04166666666667
 11
38.00000000000001
 21
28.04166666666667
  0
LINE
  5
1BA
100
AcDbEntity
  8
02_MARKING
  6
ByLayer
 62
  256
370
   -1
100
AcDbLine
 10
38.00000000000001
 20
28.04166666666667
 11
41.00000000000001
 21
29.04166666666667
  0
LINE
  5
1BB
100
AcDbEntity
  8
02_MARKING
  6
ByLayer
 62
  256
370
   -1
100
AcDbLine
 10
41.00000000000001
 20
30.04166666666667
 11
38
 21
30.04166666666667
  0
LINE
  5
1BC
100
AcDbEntity
  8
02_MARKING
  6
ByLayer
 62
  256
370
   -1
100
AcDbLine
 10
41.00000000000001
 20
31.04166666666667
 11
38
 21
31.04166666666667
  0
LINE
  5
1BD
100
AcDbEntity
  8
02_MARKING
  6
ByLayer
 62
  256
370
   -1
100
AcDbLine
 10
38
 20
31.04166666666667
 11
38.00000000000001
 21
31.875
  0
ARC
  5
1BE
100
AcDbEntity
  8
02_MARKING
  6
ByLayer
 62
  256
370
   -1
100
AcDbCircle
 10
38.83333333333334
 20
31.875
 40
0.8333333333333333
100
AcDbArc
 50
360
 51
180
  0
LINE
  5
1BF
100
AcDbEntity
  8
02_MARKING
  6
ByLayer
 62
  256
370
   -1
100
AcDbLine
 10
39.66666666666668
 20
31.875
 11
39.66666666666667
 21
31.04166666666667
  0
LINE
  5
1C0
100
AcDbEntity
  8
02_MARKING
  6
ByLayer
 62
  256
370
   -1
100
AcDbLine
 10
41.00000000000001
 20
32.70833333333333
 11
39.65124666666668
 21
32.03457
  0
ARC
  5
1C1
100
AcDbEntity
  8
02_MARKING
  6
ByLayer
 62
  256
370
   -1
100
AcDbCircle
 10
40.16666666666667
 20
36.79166666666667
 40
0.8333333333333333
100
AcDbArc
 50
270
 51
90
  0
LINE
  5
1C2
100
AcDbEntity
  8
02_MARKING
  6
ByLayer
 62
  256
370
   -1
100
AcDbLine
 10
40.16666666666667
 20
35.95833333333334
 11
38.83333333333334
 21
35.95833333333334
  0
ARC
  5
1C3
100
AcDbEntity
  8
02_MARKING
  6
ByLayer
 62
  256
370
   -1
100
AcDbCircle
 10
38.83333333333334
 20
36.79166666666667
 40
0.8333333333333333
100
AcDbArc
 50
90
 51
270
  0
LINE
  5
1C4
100
AcDbEntity
  8
02_MARKING
  6
ByLayer
 62
  256
370
   -1
100
AcDbLine
 10
38.83333333333334
 20
37.625
 11
40.16666666666667
 21
37.625
  0
LINE
  5
1C5
100
AcDbEntity
  8
02_MARKING
  6
ByLayer
 62
  256
370
   -1
100
AcDbLine
 10
38.00000000000001
 20
38.625
 11
40.16666666666667
 21
38.625
  0
ARC
  5
1C6
100
AcDbEntity
  8
02_MARKING
  6
ByLayer
 62
  256
370
   -1
100
AcDbCircle
 10
40.16666666666667
 20
39.45833333333334
 40
0.8333333333333333
100
AcDbArc
 50
270
 51
90
  0
LINE
  5
1C7
100
AcDbEntity
  8
02_MARKING
  6
ByLayer
 62
  256
370
   -1
100
AcDbLine
 10
40.16666666666667
 20
40.29166666666666
 11
38.00000000000001
 21
40.29166666666666
  0
LINE
  5
1C8
100
AcDbEntity
  8
02_MARKING
  6
ByLayer
 62
  256
370
   -1
100
AcDbLine
 10
38.00000000000001
 20
41.29166666666666
 11
38.00000000000001
 21
42.95833333333333
  0
LINE
  5
1C9
100
AcDbEntity
  8
02_MARKING
  6
ByLayer
 62
  256
370
   -1
100
AcDbLine
 10
38.00000000000001
 20
42.125
 11
41.00000000000001
 21
42.125
  0
LINE
  5
1CA
100
AcDbEntity
  8
02_MARKING
  6
ByLayer
 62
  256
370
   -1
100
AcDbLine
 10
34.1833339693396
 20
13.00000000000074
 11
34.1833339693396
 21
19.00000000000074
  0
LINE
  5
1CB
100
AcDbEntity
  8
02_MARKING
  6
ByLayer
 62
  256
370
   -1
100
AcDbLine
 10
34.1833339693396
 20
19.00000000000074
 11
35.85000063600626
 21
19.00000000000074
  0
ARC
  5
1CC
100
AcDbEntity
  8
02_MARKING
  6
ByLayer
 62
  256
370
   -1
100
AcDbCircle
 10
35.85000063600626
 20
17.33333333333407
 40
1.666666666666667
100
AcDbArc
 50
270
 51
90
  0
LINE
  5
1CD
100
AcDbEntity
  8
02_MARKING
  6
ByLayer
 62
  256
370
   -1
100
AcDbLine
 10
35.85000063600626
 20
15.6666666666674
 11
34.1833339693396
 21
15.6666666666674
  0
LINE
  5
1CE
100
AcDbEntity
  8
02_MARKING
  6
ByLayer
 62
  256
370
   -1
100
AcDbLine
 10
39.51666730267294
 20
13.00000000000074
 11
39.51666730267294
 21
19.00000000000074
  0
LINE
  5
1CF
100
AcDbEntity
  8
02_MARKING
  6
ByLayer
 62
  256
370
   -1
100
AcDbLine
 10
39.51666730267294
 20
19.00000000000074
 11
41.51666730267294
 21
15.6666666666674
  0
LINE
  5
1D0
100
AcDbEntity
  8
02_MARKING
  6
ByLayer
 62
  256
370
   -1
100
AcDbLine
 10
41.51666730267294
 20
15.6666666666674
 11
43.51666730267294
 21
19.00000000000074
  0
LINE
  5
1D1
100
AcDbEntity
  8
02_MARKING
  6
ByLayer
 62
  256
370
   -1
100
AcDbLine
 10
43.51666730267294
 20
19.00000000000074
 11
43.51666730267294
 21
13.00000000000073
  0
ARC
  5
1D2
100
AcDbEntity
  8
02_MARKING
  6
ByLayer
 62
  256
370
   -1
100
AcDbCircle
 10
47.51666509526343
 20
16.33332671110555
 40
3.333326711105543
100
AcDbArc
 50
233.130064411506
 51
270.0000379426498
  0
ARC
  5
1D3
100
AcDbEntity
  8
02_MARKING
  6
ByLayer
 62
  256
370
   -1
100
AcDbCircle
 10
47.51666679218003
 20
14.33333257181398
 40
1.333332571813345
100
AcDbArc
 50
270.0000219368293
 51
62.9810193843057
  0
LINE
  5
1D4
100
AcDbEntity
  8
02_MARKING
  6
ByLayer
 62
  256
370
   -1
100
AcDbLine
 10
48.12238063600627
 20
15.52114000000073
 11
46.24428730267294
 21
16.47886000000073
  0
ARC
  5
1D5
100
AcDbEntity
  8
02_MARKING
  6
ByLayer
 62
  256
370
   -1
100
AcDbCircle
 10
46.85000114649917
 20
17.66666742818748
 40
1.333332571813345
100
AcDbArc
 50
90.00002193682934
 51
242.9810193843057
  0
ARC
  5
1D6
100
AcDbEntity
  8
02_MARKING
  6
ByLayer
 62
  256
370
   -1
100
AcDbCircle
 10
46.85000051934595
 20
14.66666608336583
 40
4.333333916634899
100
AcDbArc
 50
67.38013659445403
 51
89.99999845750553
  0
LINE
  5
1D7
100
AcDbEntity
  8
02_MARKING
  6
ByLayer
 62
  256
370
   -1
100
AcDbLine
 10
50.84999936399337
 20
18.33333333333406
 11
50.84999936399337
 21
19.00000000000073
  0
LINE
  5
1D8
100
AcDbEntity
  8
02_MARKING
  6
ByLayer
 62
  256
370
   -1
100
AcDbLine
 10
50.84999936399337
 20
19.00000000000073
 11
53.51666603066003
 21
19.00000000000073
  0
LINE
  5
1D9
100
AcDbEntity
  8
02_MARKING
  6
ByLayer
 62
  256
370
   -1
100
AcDbLine
 10
53.51666603066003
 20
19.00000000000073
 11
52.1833326973267
 21
13.00000000000073
  0
ARC
  5
1DA
100
AcDbEntity
  8
02_MARKING
  6
ByLayer
 62
  256
370
   -1
100
AcDbCircle
 10
56.84999936399338
 20
18.1666666666674
 40
0.8333333333333333
100
AcDbArc
 50
36.86989764584401
 51
143.130102354156
  0
ARC
  5
1DB
100
AcDbEntity
  8
02_MARKING
  6
ByLayer
 62
  256
370
   -1
100
AcDbCircle
 10
61.18333269732671
 20
16.00000000000072
 40
5.666666666666666
100
AcDbArc
 50
151.927513064147
 51
208.072486935853
  0
ARC
  5
1DC
100
AcDbEntity
  8
02_MARKING
  6
ByLayer
 62
  256
370
   -1
100
AcDbCircle
 10
56.84999936399338
 20
13.83333333333406
 40
0.8333333333333333
100
AcDbArc
 50
216.869897645844
 51
323.130102354156
  0
ARC
  5
1DD
100
AcDbEntity
  8
02_MARKING
  6
ByLayer
 62
  256
370
   -1
100
AcDbCircle
 10
52.51666603066004
 20
16.00000000000073
 40
5.666666666666666
100
AcDbArc
 50
331.927513064147
 51
28.07248693585297
  0
ARC
  5
1DE
100
AcDbEntity
  8
02_MARKING
  6
ByLayer
 62
  256
370
   -1
100
AcDbCircle
 10
61.51666603066004
 20
18.1666666666674
 40
0.8333333333333333
100
AcDbArc
 50
36.86989764584401
 51
143.130102354156
  0
ARC
  5
1DF
100
AcDbEntity
  8
02_MARKING
  6
ByLayer
 62
  256
370
   -1
100
AcDbCircle
 10
65.84999936399338
 20
16.00000000000072
 40
5.666666666666666
100
AcDbArc
 50
151.927513064147
 51
208.072486935853
  0
ARC
  5
1E0
100
AcDbEntity
  8
02_MARKING
  6
ByLayer
 62
  256
370
   -1
100
AcDbCircle
 10
61.51666603066004
 20
13.83333333333406
 40
0.8333333333333333
100
AcDbArc
 50
216.869897645844
 51
323.130102354156
  0
ARC
  5
1E1
100
AcDbEntity
  8
02_MARKING
  6
ByLayer
 62
  256
370
   -1
100
AcDbCircle
 10
57.1833326973267
 20
16.00000000000073
 40
5.666666666666666
100
AcDbArc
 50
331.927513064147
 51
28.07248693585297
  0
LINE
  5
1E2
100
AcDbEntity
  8
02_MARKING
  6
ByLayer
 62
  256
370
   -1
100
AcDbLine
 10
64.84999936399338
 20
19.00000000000073
 11
66.1833326973267
 21
19.00000000000073
  0
ARC
  5
1E3
100
AcDbEntity
  8
02_MARKING
  6
ByLayer
 62
  256
370
   -1
100
AcDbCircle
 10
66.1833326973267
 20
17.6666666666674
 40
1.333333333333333
100
AcDbArc
 50
270
 51
90
  0
LINE
  5
1E4
100
AcDbEntity
  8
02_MARKING
  6
ByLayer
 62
  256
370
   -1
100
AcDbLine
 10
65.51666603066005
 20
16.33333333333406
 11
66.1833326973267
 21
16.33333333333406
  0
ARC
  5
1E5
100
AcDbEntity
  8
02_MARKING
  6
ByLayer
 62
  256
370
   -1
100
AcDbCircle
 10
66.18333369342696
 20
15.00000099610097
 40
1.333332337233461
100
AcDbArc
 50
359.999957195713
 51
90.00004280428698
  0
LINE
  5
1E6
100
AcDbEntity
  8
02_MARKING
  6
ByLayer
 62
  256
370
   -1
100
AcDbLine
 10
67.51666603066005
 20
15.00000000000073
 11
67.51666603066005
 21
14.33333333333406
  0
ARC
  5
1E7
100
AcDbEntity
  8
02_MARKING
  6
ByLayer
 62
  256
370
   -1
100
AcDbCircle
 10
66.18333369342696
 20
14.33333233723382
 40
1.333332337233461
100
AcDbArc
 50
269.999957195713
 51
4.280428697680878e-005
  0
LINE
  5
1E8
100
AcDbEntity
  8
02_MARKING
  6
ByLayer
 62
  256
370
   -1
100
AcDbLine
 10
66.1833326973267
 20
13.00000000000073
 11
64.84999936399338
 21
13.00000000000073
  0
LINE
  5
1E9
100
AcDbEntity
  8
02_MARKING
  6
ByLayer
 62
  256
370
   -1
100
AcDbLine
 10
16.79555555555557
 20
12.2111111111111
 11
16.24000000000001
 21
12.2111111111111
  0
ARC
  5
1EA
100
AcDbEntity
  8
02_MARKING
  6
ByLayer
 62
  256
370
   -1
100
AcDbCircle
 10
16.79555555555557
 20
12.65555555555555
 40
0.4444444444444444
100
AcDbArc
 50
270
 51
90
  0
LINE
  5
1EB
100
AcDbEntity
  8
02_MARKING
  6
ByLayer
 62
  256
370
   -1
100
AcDbLine
 10
16.79555555555557
 20
13.09999999999999
 11
16.24000000000001
 21
13.09999999999999
  0
LINE
  5
1EC
100
AcDbEntity
  8
02_MARKING
  6
ByLayer
 62
  256
370
   -1
100
AcDbLine
 10
16.24000000000001
 20
13.09999999999999
 11
16.24000000000001
 21
11.09999999999999
  0
LINE
  5
1ED
100
AcDbEntity
  8
02_MARKING
  6
ByLayer
 62
  256
370
   -1
100
AcDbLine
 10
16.24000000000001
 20
11.09999999999999
 11
16.79555555555557
 21
11.09999999999999
  0
ARC
  5
1EE
100
AcDbEntity
  8
02_MARKING
  6
ByLayer
 62
  256
370
   -1
100
AcDbCircle
 10
16.79555555555557
 20
11.65555555555555
 40
0.5555555555555556
100
AcDbArc
 50
270
 51
90
  0
LINE
  5
1EF
100
AcDbEntity
  8
02_MARKING
  6
ByLayer
 62
  256
370
   -1
100
AcDbLine
 10
18.01777777777779
 20
11.09999999999999
 11
18.01777777777779
 21
13.09999999999999
  0
LINE
  5
1F0
100
AcDbEntity
  8
02_MARKING
  6
ByLayer
 62
  256
370
   -1
100
AcDbLine
 10
18.01777777777779
 20
13.09999999999999
 11
18.68444444444446
 21
11.98888888888888
  0
LINE
  5
1F1
100
AcDbEntity
  8
02_MARKING
  6
ByLayer
 62
  256
370
   -1
100
AcDbLine
 10
18.68444444444446
 20
11.98888888888888
 11
19.35111111111112
 21
13.09999999999999
  0
LINE
  5
1F2
100
AcDbEntity
  8
02_MARKING
  6
ByLayer
 62
  256
370
   -1
100
AcDbLine
 10
19.35111111111112
 20
13.09999999999999
 11
19.35111111111112
 21
11.09999999999999
  0
LINE
  5
1F3
100
AcDbEntity
  8
02_MARKING
  6
ByLayer
 62
  256
370
   -1
100
AcDbLine
 10
20.90666666666668
 20
11.09999999999999
 11
20.01777777777779
 21
11.09999999999999
  0
LINE
  5
1F4
100
AcDbEntity
  8
02_MARKING
  6
ByLayer
 62
  256
370
   -1
100
AcDbLine
 10
20.01777777777779
 20
11.09999999999999
 11
20.01777777777779
 21
13.09999999999999
  0
LINE
  5
1F5
100
AcDbEntity
  8
02_MARKING
  6
ByLayer
 62
  256
370
   -1
100
AcDbLine
 10
20.01777777777779
 20
13.09999999999999
 11
20.90666666666668
 21
13.09999999999999
  0
LINE
  5
1F6
100
AcDbEntity
  8
02_MARKING
  6
ByLayer
 62
  256
370
   -1
100
AcDbLine
 10
20.01777777777779
 20
12.2111111111111
 11
20.68444444444446
 21
12.2111111111111
  0
LINE
  5
1F7
100
AcDbEntity
  8
02_MARKING
  6
ByLayer
 62
  256
370
   -1
100
AcDbLine
 10
16.24000000000001
 20
9.433333333333325
 11
16.29954444444445
 21
9.544444444444435
  0
ARC
  5
1F8
100
AcDbEntity
  8
02_MARKING
  6
ByLayer
 62
  256
370
   -1
100
AcDbCircle
 10
16.68444444444445
 20
9.322222222222214
 40
0.4444442890277506
100
AcDbArc
 50
329.9999884324239
 51
149.9999884324239
  0
LINE
  5
1F9
100
AcDbEntity
  8
02_MARKING
  6
ByLayer
 62
  256
370
   -1
100
AcDbLine
 10
17.06934444444445
 20
9.099999999999991
 11
16.24000000000001
 21
7.766666666666658
  0
LINE
  5
1FA
100
AcDbEntity
  8
02_MARKING
  6
ByLayer
 62
  256
370
   -1
100
AcDbLine
 10
16.24000000000001
 20
7.766666666666658
 11
17.1288888888889
 21
7.766666666666658
  0
LINE
  5
1FB
100
AcDbEntity
  8
02_MARKING
  6
ByLayer
 62
  256
370
   -1
100
AcDbLine
 10
18.68444444444446
 20
8.211111111111101
 11
18.68444444444446
 21
8.433333333333325
  0
ARC
  5
1FC
100
AcDbEntity
  8
02_MARKING
  6
ByLayer
 62
  256
370
   -1
100
AcDbCircle
 10
18.24000000000001
 20
8.433333333333325
 40
0.4444444444444444
100
AcDbArc
 50
0
 51
180
  0
LINE
  5
1FD
100
AcDbEntity
  8
02_MARKING
  6
ByLayer
 62
  256
370
   -1
100
AcDbLine
 10
17.79555555555557
 20
8.433333333333325
 11
17.79555555555557
 21
8.211111111111101
  0
ARC
  5
1FE
100
AcDbEntity
  8
02_MARKING
  6
ByLayer
 62
  256
370
   -1
100
AcDbCircle
 10
18.24000000000001
 20
8.211111111111101
 40
0.4444444444444444
100
AcDbArc
 50
180
 51
0
  0
ARC
  5
1FF
100
AcDbEntity
  8
02_MARKING
  6
ByLayer
 62
  256
370
   -1
100
AcDbCircle
 10
18.24000000000001
 20
9.322222222222214
 40
0.4444444444444444
100
AcDbArc
 50
270
 51
90
  0
ARC
  5
200
100
AcDbEntity
  8
02_MARKING
  6
ByLayer
 62
  256
370
   -1
100
AcDbCircle
 10
18.24000000000001
 20
9.322222222222214
 40
0.4444444444444444
100
AcDbArc
 50
90
 51
270
  0
ARC
  5
201
100
AcDbEntity
  8
02_MARKING
  6
ByLayer
 62
  256
370
   -1
100
AcDbCircle
 10
19.79555555555556
 20
9.48888888888888
 40
0.2777777777777778
100
AcDbArc
 50
36.86989764584401
 51
143.130102354156
  0
ARC
  5
202
100
AcDbEntity
  8
02_MARKING
  6
ByLayer
 62
  256
370
   -1
100
AcDbCircle
 10
21.24000000000001
 20
8.766666666666657
 40
1.888888888888889
100
AcDbArc
 50
151.927513064147
 51
208.0724869358529
  0
ARC
  5
203
100
AcDbEntity
  8
02_MARKING
  6
ByLayer
 62
  256
370
   -1
100
AcDbCircle
 10
19.79555555555556
 20
8.044444444444435
 40
0.2777777777777778
100
AcDbArc
 50
216.869897645844
 51
323.130102354156
  0
ARC
  5
204
100
AcDbEntity
  8
02_MARKING
  6
ByLayer
 62
  256
370
   -1
100
AcDbCircle
 10
18.35111111111112
 20
8.766666666666659
 40
1.888888888888889
100
AcDbArc
 50
331.927513064147
 51
28.07248693585295
  0
LINE
  5
205
100
AcDbEntity
  8
02_MARKING
  6
ByLayer
 62
  256
370
   -1
100
AcDbLine
 10
10.66666666666667
 20
36
 11
10.66666666666667
 21
31.66666666666667
  0
ARC
  5
206
100
AcDbEntity
  8
02_MARKING
  6
ByLayer
 62
  256
370
   -1
100
AcDbCircle
 10
12.33333333333333
 20
31.66666666666667
 40
1.666666666666667
100
AcDbArc
 50
180
 51
0
  0
LINE
  5
207
100
AcDbEntity
  8
02_MARKING
  6
ByLayer
 62
  256
370
   -1
100
AcDbLine
 10
14
 20
31.66666666666667
 11
14
 21
36
  0
LINE
  5
208
100
AcDbEntity
  8
02_MARKING
  6
ByLayer
 62
  256
370
   -1
100
AcDbLine
 10
16
 20
36
 11
17.33333333333333
 21
30
  0
LINE
  5
209
100
AcDbEntity
  8
02_MARKING
  6
ByLayer
 62
  256
370
   -1
100
AcDbLine
 10
17.33333333333333
 20
30
 11
18.66666666666667
 21
34
  0
LINE
  5
20A
100
AcDbEntity
  8
02_MARKING
  6
ByLayer
 62
  256
370
   -1
100
AcDbLine
 10
18.66666666666667
 20
34
 11
20
 21
30
  0
LINE
  5
20B
100
AcDbEntity
  8
02_MARKING
  6
ByLayer
 62
  256
370
   -1
100
AcDbLine
 10
20
 20
30
 11
21.33333333333333
 21
36
  0
LINE
  5
20C
100
AcDbEntity
  8
02_MARKING
  6
ByLayer
 62
  256
370
   -1
100
AcDbLine
 10
12.66666666666648
 20
20
 11
11.33333333333315
 21
20
  0
ARC
  5
20D
100
AcDbEntity
  8
02_MARKING
  6
ByLayer
 62
  256
370
   -1
100
AcDbCircle
 10
11.3333323372329
 20
21.33333233723309
 40
1.333332337233461
100
AcDbArc
 50
179.999957195713
 51
270.000042804287
  0
LINE
  5
20E
100
AcDbEntity
  8
02_MARKING
  6
ByLayer
 62
  256
370
   -1
100
AcDbLine
 10
9.999999999999815
 20
21.33333333333333
 11
9.999999999999815
 21
24.66666666666667
  0
ARC
  5
20F
100
AcDbEntity
  8
02_MARKING
  6
ByLayer
 62
  256
370
   -1
100
AcDbCircle
 10
11.3333323372329
 20
24.66666766276691
 40
1.333332337233461
100
AcDbArc
 50
89.99995719571304
 51
180.000042804287
  0
LINE
  5
210
100
AcDbEntity
  8
02_MARKING
  6
ByLayer
 62
  256
370
   -1
100
AcDbLine
 10
11.33333333333315
 20
26
 11
12.66666666666648
 21
26
  0
LINE
  5
211
100
AcDbEntity
  8
02_MARKING
  6
ByLayer
 62
  256
370
   -1
100
AcDbLine
 10
17.33333333333315
 20
20
 11
14.66666666666648
 21
20
  0
LINE
  5
212
100
AcDbEntity
  8
02_MARKING
  6
ByLayer
 62
  256
370
   -1
100
AcDbLine
 10
14.66666666666648
 20
20
 11
14.66666666666648
 21
26
  0
LINE
  5
213
100
AcDbEntity
  8
02_MARKING
  6
ByLayer
 62
  256
370
   -1
100
AcDbLine
 10
14.66666666666648
 20
26
 11
17.33333333333315
 21
26
  0
LINE
  5
214
100
AcDbEntity
  8
02_MARKING
  6
ByLayer
 62
  256
370
   -1
100
AcDbLine
 10
14.66666666666648
 20
23.33333333333333
 11
16.66666666666648
 21
23.33333333333333
  0
LINE
  5
215
100
AcDbEntity
  8
02_MARKING
  6
ByLayer
 62
  256
370
   -1
100
AcDbLine
 10
21.99999999999982
 20
20
 11
19.33333333333315
 21
20
  0
LINE
  5
216
100
AcDbEntity
  8
02_MARKING
  6
ByLayer
 62
  256
370
   -1
100
AcDbLine
 10
19.33333333333315
 20
20
 11
19.33333333333315
 21
26
  0
LINE
  5
217
100
AcDbEntity
  8
02_MARKING
  6
ByLayer
 62
  256
370
   -1
100
AcDbLine
 10
19.33333333333315
 20
26
 11
21.99999999999982
 21
26
  0
LINE
  5
218
100
AcDbEntity
  8
02_MARKING
  6
ByLayer
 62
  256
370
   -1
100
AcDbLine
 10
19.33333333333315
 20
23.33333333333333
 11
21.33333333333315
 21
23.33333333333333
  0
LINE
  5
219
100
AcDbEntity
  8
02_MARKING
  6
ByLayer
 62
  256
370
   -1
100
AcDbLine
 10
83.5
 20
40.375
 11
81.5
 21
40.375
  0
LINE
  5
21A
100
AcDbEntity
  8
02_MARKING
  6
ByLayer
 62
  256
370
   -1
100
AcDbLine
 10
81.5
 20
40.375
 11
81.5
 21
41.375
  0
LINE
  5
21B
100
AcDbEntity
  8
02_MARKING
  6
ByLayer
 62
  256
370
   -1
100
AcDbLine
 10
81.5
 20
41.375
 11
81.83333333333334
 21
41.375
  0
LINE
  5
21C
100
AcDbEntity
  8
02_MARKING
  6
ByLayer
 62
  256
370
   -1
100
AcDbLine
 10
83.5
 20
43.70833333333333
 11
83.5
 21
42.875
  0
ARC
  5
21D
100
AcDbEntity
  8
02_MARKING
  6
ByLayer
 62
  256
370
   -1
100
AcDbCircle
 10
83.00000037353759
 20
42.87499962646241
 40
0.4999996264625478
100
AcDbArc
 50
269.999957195713
 51
4.280428697680878e-005
  0
LINE
  5
21E
100
AcDbEntity
  8
02_MARKING
  6
ByLayer
 62
  256
370
   -1
100
AcDbLine
 10
83
 20
42.375
 11
82.16666666666666
 21
42.375
  0
ARC
  5
21F
100
AcDbEntity
  8
02_MARKING
  6
ByLayer
 62
  256
370
   -1
100
AcDbCircle
 10
82.16666666666667
 20
43.04166666666667
 40
0.6666666666666666
100
AcDbArc
 50
90
 51
270
  0
LINE
  5
220
100
AcDbEntity
  8
02_MARKING
  6
ByLayer
 62
  256
370
   -1
100
AcDbLine
 10
82.16666666666667
 20
43.70833333333333
 11
82.5
 21
43.70833333333333
  0
LINE
  5
221
100
AcDbEntity
  8
02_MARKING
  6
ByLayer
 62
  256
370
   -1
100
AcDbLine
 10
82.5
 20
43.70833333333333
 11
82.5
 21
42.375
  0
LINE
  5
222
100
AcDbEntity
  8
02_MARKING
  6
ByLayer
 62
  256
370
   -1
100
AcDbLine
 10
81.5
 20
44.70833333333334
 11
83.5
 21
45.37500000000001
  0
LINE
  5
223
100
AcDbEntity
  8
02_MARKING
  6
ByLayer
 62
  256
370
   -1
100
AcDbLine
 10
83.5
 20
45.37500000000001
 11
81.5
 21
46.04166666666666
  0
LINE
  5
224
100
AcDbEntity
  8
02_MARKING
  6
ByLayer
 62
  256
370
   -1
100
AcDbLine
 10
83.5
 20
47.04166666666666
 11
83.33333333333334
 21
47.04166666666666
  0
ARC
  5
225
100
AcDbEntity
  8
02_MARKING
  6
ByLayer
 62
  256
370
   -1
100
AcDbCircle
 10
80.91666666666667
 20
50.95833333333334
 40
0.4166666666666666
100
AcDbArc
 50
126.869897645844
 51
233.130102354156
  0
ARC
  5
226
100
AcDbEntity
  8
02_MARKING
  6
ByLayer
 62
  256
370
   -1
100
AcDbCircle
 10
82
 20
53.12499999999999
 40
2.833333333333333
100
AcDbArc
 50
241.927513064147
 51
298.072486935853
  0
ARC
  5
227
100
AcDbEntity
  8
02_MARKING
  6
ByLayer
 62
  256
370
   -1
100
AcDbCircle
 10
83.08333333333334
 20
50.95833333333334
 40
0.4166666666666666
100
AcDbArc
 50
306.869897645844
 51
53.13010235415599
  0
ARC
  5
228
100
AcDbEntity
  8
02_MARKING
  6
ByLayer
 62
  256
370
   -1
100
AcDbCircle
 10
82
 20
48.79166666666666
 40
2.833333333333333
100
AcDbArc
 50
61.92751306414704
 51
118.072486935853
  0
CIRCLE
  5
229
100
AcDbEntity
  8
01_LASER
  6
ByLayer
 62
  256
370
   -1
100
AcDbCircle
 10
3.5
 20
52.5
 40
1.35
  0
CIRCLE
  5
22A
100
AcDbEntity
  8
01_LASER
  6
ByLayer
 62
  256
370
   -1
100
AcDbCircle
 10
3.5
 20
3.499999999999993
 40
1.35
  0
CIRCLE
  5
22B
100
AcDbEntity
  8
01_LASER
  6
ByLayer
 62
  256
370
   -1
100
AcDbCircle
 10
61.5
 20
3.499999999999993
 40
1.35
  0
CIRCLE
  5
22C
100
AcDbEntity
  8
01_LASER
  6
ByLayer
 62
  256
370
   -1
100
AcDbCircle
 10
61.5
 20
52.49999999999999
 40
1.35
  0
ARC
  5
22D
100
AcDbEntity
  8
01_LASER
  6
ByLayer
 62
  256
370
   -1
100
AcDbCircle
 10
2.999997758774444
 20
53.00000224122555
 40
2.999997758775285
100
AcDbArc
 50
89.99995719571292
 51
180.000042804287
  0
ARC
  5
22E
100
AcDbEntity
  8
01_LASER
  6
ByLayer
 62
  256
370
   -1
100
AcDbCircle
 10
2.99999775877445
 20
2.999997758774449
 40
2.999997758775286
100
AcDbArc
 50
179.999957195713
 51
270.000042804287
  0
LINE
  5
22F
100
AcDbEntity
  8
01_LASER
  6
ByLayer
 62
  256
370
   -1
100
AcDbLine
 10
62
 20
0
 11
3
 21
0
  0
LINE
  5
230
100
AcDbEntity
  8
01_LASER
  6
ByLayer
 62
  256
370
   -1
100
AcDbLine
 10
58.5
 20
52.49999999999999
 11
58.5
 21
53
  0
LINE
  5
231
100
AcDbEntity
  8
01_LASER
  6
ByLayer
 62
  256
370
   -1
100
AcDbLine
 10
62
 20
56
 11
61.5
 21
56
  0
ARC
  5
232
100
AcDbEntity
  8
01_LASER
  6
ByLayer
 62
  256
370
   -1
100
AcDbCircle
 10
61.5
 20
53
 40
3
100
AcDbArc
 50
90
 51
180
  0
LINE
  5
233
100
AcDbEntity
  8
01_LASER
  6
ByLayer
 62
  256
370
   -1
100
AcDbLine
 10
3.499999999999994
 20
56
 11
3
 21
56
  0
LINE
  5
234
100
AcDbEntity
  8
01_LASER
  6
ByLayer
 62
  256
370
   -1
100
AcDbLine
 10
6.5
 20
52.5
 11
6.5
 21
53
  0
ARC
  5
235
100
AcDbEntity
  8
01_LASER
  6
ByLayer
 62
  256
370
   -1
100
AcDbCircle
 10
3.5
 20
53
 40
3
100
AcDbArc
 50
0
 51
90.00000000000013
  0
LINE
  5
236
100
AcDbEntity
  8
01_LASER
  6
ByLayer
 62
  256
370
   -1
100
AcDbLine
 10
-3.074463760500432e-016
 20
41
 11
-3.996802888650564e-015
 21
53
  0
ARC
  5
237
100
AcDbEntity
  8
01_LASER
  6
ByLayer
 62
  256
370
   -1
100
AcDbCircle
 10
0.9999999999999996
 20
41
 40
1
100
AcDbArc
 50
180
 51
270
  0
LINE
  5
238
100
AcDbEntity
  8
01_LASER
  6
ByLayer
 62
  256
370
   -1
100
AcDbLine
 10
0
 20
15
 11
0
 21
3
  0
ARC
  5
239
100
AcDbEntity
  8
01_LASER
  6
ByLayer
 62
  256
370
   -1
100
AcDbCircle
 10
1
 20
15
 40
1
100
AcDbArc
 50
90
 51
180
  0
LINE
  5
23A
100
AcDbEntity
  8
01_LASER
  6
ByLayer
 62
  256
370
   -1
100
AcDbLine
 10
0.9999999999999996
 20
40
 11
6
 21
40
  0
ARC
  5
23B
100
AcDbEntity
  8
01_LASER
  6
ByLayer
 62
  256
370
   -1
100
AcDbCircle
 10
6
 20
39
 40
1
100
AcDbArc
 50
0
 51
90
  0
LINE
  5
23C
100
AcDbEntity
  8
01_LASER
  6
ByLayer
 62
  256
370
   -1
100
AcDbLine
 10
6
 20
16
 11
1
 21
16
  0
LINE
  5
23D
100
AcDbEntity
  8
01_LASER
  6
ByLayer
 62
  256
370
   -1
100
AcDbLine
 10
7
 20
39
 11
7
 21
17
  0
ARC
  5
23E
100
AcDbEntity
  8
01_LASER
  6
ByLayer
 62
  256
370
   -1
100
AcDbCircle
 10
6
 20
17
 40
1
100
AcDbArc
 50
270
 51
0
  0
LINE
  5
23F
100
AcDbEntity
  8
01_LASER
  6
ByLayer
 62
  256
370
   -1
100
AcDbLine
 10
6.5
 20
52.5
 11
6.5
 21
50.00000000000001
  0
ARC
  5
240
100
AcDbEntity
  8
01_LASER
  6
ByLayer
 62
  256
370
   -1
100
AcDbCircle
 10
7.5
 20
50.00000000000001
 40
1
100
AcDbArc
 50
180
 51
270
  0
LINE
  5
241
100
AcDbEntity
  8
01_LASER
  6
ByLayer
 62
  256
370
   -1
100
AcDbLine
 10
58.5
 20
52.49999999999999
 11
58.50000000000001
 21
50
  0
LINE
  5
242
100
AcDbEntity
  8
01_LASER
  6
ByLayer
 62
  256
370
   -1
100
AcDbLine
 10
7.5
 20
49.00000000000001
 11
57.50000000000001
 21
49
  0
ARC
  5
243
100
AcDbEntity
  8
01_LASER
  6
ByLayer
 62
  256
370
   -1
100
AcDbCircle
 10
57.50000000000001
 20
50
 40
1
100
AcDbArc
 50
270
 51
0
  0
LINE
  5
244
100
AcDbEntity
  8
01_LASER
  6
ByLayer
 62
  256
370
   -1
100
AcDbLine
 10
62
 20
56
 11
82
 21
56
  0
ARC
  5
245
100
AcDbEntity
  8
01_LASER
  6
ByLayer
 62
  256
370
   -1
100
AcDbCircle
 10
82
 20
53
 40
3
100
AcDbArc
 50
0
 51
90
  0
LINE
  5
246
100
AcDbEntity
  8
01_LASER
  6
ByLayer
 62
  256
370
   -1
100
AcDbLine
 10
85
 20
53
 11
85
 21
3
  0
LINE
  5
247
100
AcDbEntity
  8
01_LASER
  6
ByLayer
 62
  256
370
   -1
100
AcDbLine
 10
82
 20
0
 11
62
 21
0
  0
ARC
  5
248
100
AcDbEntity
  8
01_LASER
  6
ByLayer
 62
  256
370
   -1
100
AcDbCircle
 10
82
 20
3
 40
3
100
AcDbArc
 50
270
 51
0
  0
LINE
  5
249
100
AcDbEntity
  8
01_LASER
  6
ByLayer
 62
  256
370
   -1
100
AcDbLine
 10
9
 20
3
 11
25
 21
3
  0
LINE
  5
24A
100
AcDbEntity
  8
01_LASER
  6
ByLayer
 62
  256
370
   -1
100
AcDbLine
 10
25
 20
3
 11
25
 21
7
  0
LINE
  5
24B
100
AcDbEntity
  8
01_LASER
  6
ByLayer
 62
  256
370
   -1
100
AcDbLine
 10
25
 20
7
 11
9
 21
7
  0
LINE
  5
24C
100
AcDbEntity
  8
01_LASER
  6
ByLayer
 62
  256
370
   -1
100
AcDbLine
 10
9
 20
7
 11
9
 21
3
  0
CIRCLE
  5
24D
100
AcDbEntity
  8
01_LASER
  6
ByLayer
 62
  256
370
   -1
100
AcDbCircle
 10
14.38
 20
14.16
 40
1.35
  0
LINE
  5
24E
100
AcDbEntity
  8
01_LASER
  6
ByLayer
 62
  256
370
   -1
100
AcDbLine
 10
46.25000000000001
 20
45.69999999999999
 11
54.25000000000001
 21
45.69999999999999
  0
LINE
  5
24F
100
AcDbEntity
  8
01_LASER
  6
ByLayer
 62
  256
370
   -1
100
AcDbLine
 10
54.25000000000001
 20
45.69999999999999
 11
54.25000000000001
 21
47.69999999999999
  0
LINE
  5
250
100
AcDbEntity
  8
01_LASER
  6
ByLayer
 62
  256
370
   -1
100
AcDbLine
 10
54.25000000000001
 20
47.69999999999999
 11
46.25000000000001
 21
47.69999999999999
  0
LINE
  5
251
100
AcDbEntity
  8
01_LASER
  6
ByLayer
 62
  256
370
   -1
100
AcDbLine
 10
46.25000000000001
 20
47.69999999999999
 11
46.25000000000001
 21
45.69999999999999
  0
LINE
  5
252
100
AcDbEntity
  8
01_LASER
  6
ByLayer
 62
  256
370
   -1
100
AcDbLine
 10
26
 20
13.17500000000001
 11
26
 21
21.17500000000001
  0
LINE
  5
253
100
AcDbEntity
  8
01_LASER
  6
ByLayer
 62
  256
370
   -1
100
AcDbLine
 10
26
 20
21.17500000000001
 11
24
 21
21.17500000000001
  0
LINE
  5
254
100
AcDbEntity
  8
01_LASER
  6
ByLayer
 62
  256
370
   -1
100
AcDbLine
 10
24
 20
21.17500000000001
 11
24
 21
13.17500000000001
  0
LINE
  5
255
100
AcDbEntity
  8
01_LASER
  6
ByLayer
 62
  256
370
   -1
100
AcDbLine
 10
24
 20
13.17500000000001
 11
26
 21
13.17500000000001
  0
LINE
  5
256
100
AcDbEntity
  8
01_LASER
  6
ByLayer
 62
  256
370
   -1
100
AcDbLine
 10
46.24999999999999
 20
6.999999999999999
 11
54.24999999999999
 21
6.999999999999998
  0
LINE
  5
257
100
AcDbEntity
  8
01_LASER
  6
ByLayer
 62
  256
370
   -1
100
AcDbLine
 10
54.24999999999999
 20
6.999999999999998
 11
54.24999999999999
 21
4.999999999999998
  0
LINE
  5
258
100
AcDbEntity
  8
01_LASER
  6
ByLayer
 62
  256
370
   -1
100
AcDbLine
 10
54.24999999999999
 20
4.999999999999998
 11
46.24999999999999
 21
4.999999999999999
  0
LINE
  5
259
100
AcDbEntity
  8
01_LASER
  6
ByLayer
 62
  256
370
   -1
100
AcDbLine
 10
46.24999999999999
 20
4.999999999999999
 11
46.24999999999999
 21
6.999999999999999
  0
LINE
  5
25A
100
AcDbEntity
  8
01_LASER
  6
ByLayer
 62
  256
370
   -1
100
AcDbLine
 10
75.7
 20
13.17500000000001
 11
75.7
 21
21.17500000000001
  0
LINE
  5
25B
100
AcDbEntity
  8
01_LASER
  6
ByLayer
 62
  256
370
   -1
100
AcDbLine
 10
75.7
 20
21.17500000000001
 11
77.7
 21
21.17500000000001
  0
LINE
  5
25C
100
AcDbEntity
  8
01_LASER
  6
ByLayer
 62
  256
370
   -1
100
AcDbLine
 10
77.7
 20
21.17500000000001
 11
77.7
 21
13.17500000000001
  0
LINE
  5
25D
100
AcDbEntity
  8
01_LASER
  6
ByLayer
 62
  256
370
   -1
100
AcDbLine
 10
77.7
 20
13.17500000000001
 11
75.7
 21
13.17500000000001
  0
ENDSEC
  0
SECTION
  2
OBJECTS
  0
DICTIONARY
  5
C
330
0
100
AcDbDictionary
281
    1
  3
ACAD_GROUP
350
D
  0
DICTIONARY
  5
D
330
C
100
AcDbDictionary
281
    1
  0
ENDSEC
  0
EOF
